<svg xmlns="http://www.w3.org/2000/svg" viewBox="0 0 4680 3120"><g data-name="5"><ellipse cx="3142.27" cy="2488.27" fill="#b9d6e0" rx="926.53" ry="43.06"/><path fill="#d2ebf8" d="M3743.35 957.33c36.54-429.05-479-631.61-803.17-592.6-309.54 37.27-444.06 123.21-636.39 303.47s-432.79 81.55-620.72-12.87S1158.53 556.61 957.45 797s-61.2 485-104.91 600.86S629.61 1728.29 669 2054.48c30.72 254.69 85.42 378.54 107.93 420.6h3138.42c27.54-40.57 281-268.5 180.63-746.79-84.68-403.65-388.68-347.74-352.63-770.96Z"/><path fill="#4ea9db" d="M2178.38 581.33h993.86v713.01h-993.86z"/><path fill="#99d7f5" d="M2196.19 600.74h954.68v675.95h-954.68z"/><path fill="#4ea9db" d="M2194.41 929.01h956.46v19.41h-956.46z"/><path fill="#6ac5ef" d="M2278.12 696.04h151.39v227.67h-151.39zM2933.57 1040.19h153.18v231.2h-153.18zM2821.91 747.36h85.49v183.55h-85.49z"/><path fill="#fff" d="M2278.12 696.04h153.18v40.59h-153.18zM2821.91 747.36v40.59l85.52.23-.02-40.82h-85.5zM2933.57 1040.19h154.96v49.42h-154.96zM3017.92 723.39h42.75v50.3h-42.75z"/><rect width="93.51" height="157.51" x="2991.21" y="772.37" fill="#6ac5ef" rx="5.38"/><path fill="#fff" d="M2817.92 1072.06h42.75v50.3h-42.75z"/><rect width="93.51" height="157.51" x="2791.2" y="1121.04" fill="#6ac5ef" rx="5.38"/><path fill="#fff" d="M2640.65 1069.06h42.75v50.3h-42.75z"/><rect width="93.51" height="157.51" x="2613.93" y="1118.03" fill="#6ac5ef" rx="5.38"/><path fill="#c0e7fa" d="m2622.32 1274.92 117.55 1.32 305.91-672.41h-112.21l-311.25 671.09zM2368.96 1274.92h162.52l304.57-673.74h-160.3l-306.79 673.74z"/><path fill="#fff" d="M2295.9 783.76h118.05v49.16H2295.9zM2296.09 844.97h117.1V851h-117.1z"/><ellipse cx="2705.52" cy="2638.44" fill="#b9d6e0" rx="941.28" ry="121.56"/><path fill="#f0efee" d="M2351 1677.8h1651.72v799.65H2351z"/><path fill="#f0efee" d="M2351 1677.8h1651.72v799.65H2351z"/><path fill="#8ed4f4" d="M2351 1677.8h1651.72v799.65H2351z"/><path fill="#619a9d" d="M2351 1677.8h1651.72v16.86H2351z"/><path fill="#75b8bb" d="M3128.26 1883.62h874.46v16.86h-874.46z"/><rect width="1729.94" height="72.24" x="2305.69" y="1605.56" fill="#4b628f" rx="31.18"/><path fill="#938584" d="M3121.66 1686.22h13.19v791.23h-13.19z"/><path fill="#75b8bb" d="M2726.69 1686.22h13.19v791.23h-13.19zM3562.57 1892.04h13.19v585.41h-13.19zM2681.67 2040.81c-13.93 0-25.23 12.32-25.23 27.52s11.3 27.52 25.23 27.52 25.22-12.32 25.22-27.52-11.29-27.52-25.22-27.52ZM2784.9 2040.81c-13.93 0-25.22 12.32-25.22 27.52s11.29 27.52 25.22 27.52 25.22-12.32 25.22-27.52-11.29-27.52-25.22-27.52ZM3575.77 1753.19c-13.93 0-25.22 12.32-25.22 27.52s11.29 27.52 25.22 27.52 25.22-12.32 25.22-27.52-11.29-27.52-25.22-27.52ZM3514.63 2179.49c-13.93 0-25.23 12.32-25.23 27.51s11.3 27.52 25.23 27.52 25.22-12.32 25.22-27.52-11.29-27.51-25.22-27.51ZM3617.86 2179.49c-13.93 0-25.22 12.32-25.22 27.51s11.29 27.52 25.22 27.52 25.22-12.32 25.22-27.52-11.29-27.51-25.22-27.51Z"/><path fill="#4b628f" d="M1448.87 2029.42H2190v77.44h-741.13z"/><path fill="#fafafc" d="M1527.02 1930.62h848.93v98.14h-848.93z"/><path fill="#75b8bb" d="M1937.34 1926.61s-347.66 6-363.83 0-101.77-388.61-151.59-630.89c-51.21-249-68.72-226.32-68.72-226.32-58.62-4-36.39 62.09-36.39 62.09l28.3 130.18s113.19 514.73 129.36 612.87 58.62 146.21 58.62 146.21h404.25s20.22-8 22.24-46.07-22.24-48.07-22.24-48.07Z"/><path fill="#4b628f" d="m1377.45 1700.29 71.42 329.13 88.26 1.34-99.04-332.47-60.64 2z"/><path fill="#263249" d="m1715.83 2107.14 1.19 306.16h192.03l-1.4-306.63-191.82.47z"/><rect width="458.83" height="68.1" x="1585.64" y="2407.29" fill="#182338" rx="29.4"/><path fill="#fafdff" d="m1834.26 1072.07-475.67-1.34c9.43 24 45.81 162.9 45.81 162.9l155 695 520.15 2s-200.78-781.11-200.78-809.15-44.51-49.41-44.51-49.41Z"/><path fill="#51687a" d="M1191.49 508.6h32.34v1938.75h-32.34z"/><rect width="280.28" height="58.75" x="1074.26" y="2413.97" fill="#30404d" rx="25.36"/><path fill="#51687a" d="M1147.03 566.02h223.69v8.01h-223.69z"/><path fill="#51687a" d="M1374.08 539.31s8.76 24-3.37 26.71v8s28.3-3.34 11.46-36ZM1328.94 551.33h14.82v84.12h-14.82z"/><path fill="#f48361" d="m1653.59 1464.42-86.57 175.06 278.52-11.6-9.05-94.26-182.9-69.2z"/><ellipse cx="1711.01" cy="1564.21" fill="#fff" rx="36.22" ry="24.51"/><path fill="#e19e8c" d="M3137.63 2295.28h146.66v181.61h-146.66z"/><path fill="#f59082" d="M3282 2309.7a2.83 2.83 0 0 0-2.85 2.82v143.62a2.86 2.86 0 0 0 5.71 0v-143.62a2.84 2.84 0 0 0-2.86-2.82Z"/><path fill="#fcbd6a" d="m3170.7 1408.82-66.86-21.55a2.83 2.83 0 1 0-1.77 5.37l65 21 49.08 881.84a2.85 2.85 0 0 0 5.7-.31l-49.19-883.78a2.82 2.82 0 0 0-1.96-2.57Z"/><path fill="#f79836" d="M3299.66 723c-23.22-14.27-64.34-1-100.63 0s-30.81 32.14-30.81 32.14-109.27 386.34-75 462.74 252.5 60.3 252.5 60.3-22.85-540.9-46.06-555.18Z"/><path fill="#f6a196" d="m3182 678.74-4.62 66.81s15.95 14.46 48.9 11.89c44.22-3.46 48.82-23.93 48.82-23.93l.18-74.89-13.4 2.9Z"/><path d="M3275.22 654.05 3182 678.74l-3.29 59.41c19-1.65 82.87-26.42 99.87-63.79 1.27-2.77-3.58-18.27-3.36-20.31Z"/><path fill="#fff" d="M2998.05 916.67c-76.14 141.07-58.37 275.42-58.37 275.42l88.82 85.64s17.76 371.27 17.76 381.27 1 75.94 8.61 75.94 70.06-501.65 70.06-501.65 36.37-385.16 53.9-505.52c0 .01-104.65 47.82-180.78 188.9Z"/><path fill="#f6a196" d="M3198.39 1081.05c-18.38-1.8-61.2 32.56-61.2 32.56l32.37 122.86s127.62.18 138-35.61-36.1-93.44-36.1-93.44-54.7-24.58-73.07-26.37Z"/><path fill="#fff" d="M3085.1 936.82a2.87 2.87 0 0 0-3.06 2.61l-8.17 110.43a2.84 2.84 0 0 0 2.64 3h.21a2.85 2.85 0 0 0 2.84-2.63l8.18-110.43a2.84 2.84 0 0 0-2.64-2.98Z"/><path fill="#46477f" d="M3239.06 1001.48a6.06 6.06 0 0 0-5.23 3l-64.76 110.45 16.53-2.38 58.72-102.09a6 6 0 0 0-5.26-8.98Z"/><path d="m3210 1106.68-64.31 9.25a2.32 2.32 0 0 0 .33 4.62h.34l64.31-9.25a2.32 2.32 0 0 0 2-2.63 2.36 2.36 0 0 0-2.67-1.99Z"/><path fill="#fff" d="M3463.72 785.2c-106.59-77-188.54-69.49-188.54-69.49l31.88 345.5-55.84 31.48 21.66 155.6s282.34 52.42 331.82-57-24.2-321.78-140.98-406.09Z"/><path fill="#fcbd6a" d="M3031.28 1015.84a2.85 2.85 0 0 0-5.5 1.53l5.83 20.62a19.59 19.59 0 0 1-2.89 16.82 18.6 18.6 0 0 1-14 7.83l-49.61 3.19a23 23 0 0 1-23.32-16.26l-8.82-27.71a2.84 2.84 0 0 0-3.58-1.85 2.81 2.81 0 0 0-1.86 3.55l8.81 27.71a28.79 28.79 0 0 0 27.32 20.26c.6 0 1.21 0 1.82-.06l49.61-3.19a24.3 24.3 0 0 0 18.27-10.2 25.21 25.21 0 0 0 3.73-21.62Z"/><path fill="#fff" d="M3362.49 1042.3a2.82 2.82 0 0 0 1 5.48 2.87 2.87 0 0 0 1-.17l109.26-40-21.76 1.93ZM3510.38 1497.78 3381 1510.35a2.85 2.85 0 0 0-2.58 2.89c1.9 69.4 7 186.21 20 188.78a16.64 16.64 0 0 0 3.06.22c20.17 0 100.21-18.16 109.8-20.35a2.84 2.84 0 0 0 2.21-2.76V1500.6a2.81 2.81 0 0 0-.94-2.1 3 3 0 0 0-2.17-.72Zm-2.57 179.1c-39.61 9-99.6 21.46-108.24 19.59-6.69-5.82-13-97-15.33-180.75l123.57-12Z"/><path fill="#f38476" d="m2035 1482.52-141.82 20.81v112.25l102 283 95.08 128.29s47.47-27.74 54.47-53.17-36.16-99.4-36.16-99.4Z"/><path d="M2114.59 1974.91c-12.91-.8-20.71-33.17-22.42-44.45a3.49 3.49 0 0 0-1.56-2.39L2078 1920c-9.12-5.87-12.79-27.62-13.43-35.51a3.5 3.5 0 0 0-7 .55c.27 3.25 3 32 16.6 40.78l11.29 7.25c1.57 9.29 9.21 47.57 28.65 48.78h.23a3.46 3.46 0 0 0 .21-6.92Z"/><path fill="#f8ad99" d="M1937.66 2398.11v104.92l190.9-4.02-1.2-113.27-189.7 12.37zM2248.87 2383.34l22.28 102.56 185.9-28.62-9.61-124.23-198.57 50.29z"/><path fill="#a02041" d="m1992.64 1691.91 209.7 629.8 34.24 109.68 237.32-18.22s-20.42-451.5-90.3-582.73c-61.6-115.77-390.96-138.53-390.96-138.53Z"/><path fill="#ad2447" d="m1738.94 1662.94-211.61 11s-42.81 227.23 47.1 290.41 356.65 84.65 356.65 84.65l-10.69 390.36h233.44s159.12-513.23 95.24-637.33-510.13-139.09-510.13-139.09Z"/><path fill="#75b8bb" d="m1889.62 1519.51 171.48-26.37-141.28-270.42-30.2 296.79z"/><path fill="#75b8bb" d="M1919.82 1222.72c-40.21-58.66-147.29-69.41-147.29-69.41-78.36-10.76-194.36 18.57-226 53.75s-25.06 431.55-26.59 440.41c-14.2 82.24 90.34 67.8 220.36 71.06s215.28 4.89 189.47-29.7c-3.46-4.71 30.23-407.46-9.95-466.11Z"/><path fill="#f59383" d="m1804.53 1109.16-84.66-16.51 4.39 2.72-16.83 73.52s14.9 22.4 61.64 25.13c34.82 2 46.85-6 46.85-6l-5.74-39.92Z"/><path d="M1719.87 1092.65a25.62 25.62 0 0 0 2.49 7.57c18.73 39.09 67.71 46.52 87.82 47.86l-5.65-38.92Z"/><path fill="#fff" d="M1939.79 1348.07a3.48 3.48 0 0 0-3.5 3.46v121.75a3.5 3.5 0 0 0 7 0v-121.75a3.48 3.48 0 0 0-3.5-3.46Z"/><path fill="#f59383" d="M1869.18 1608.41c-121.85-25.82-270.68-212.7-270.68-212.7s-136.71.71-112.71 123.66c38.49 197.2 359.4 179.61 359.4 179.61s145.81-64.75 23.99-90.57Z"/><path fill="#75b8bb" d="M1454.08 1348.19c-24.08 141.45 64.61 275.44 64.61 275.44l200-162.23-20.8-308.52s-210.55-.03-243.81 195.31Z"/><path fill="#f59383" d="M2088.93 1636.15c-10.92-9.07-24.46-14.35-38.53-16.6-27.7-4.44-80.82-10-80.07 13.08 1 31.15 99.16 49.84 122.94 31.15 11.89-9.34 5.26-19.65-4.34-27.63Z"/><path d="m2053 1667.43-65.49-17.57a3.47 3.47 0 1 0-1.83 6.7l65.49 17.57a4.22 4.22 0 0 0 .92.12 3.49 3.49 0 0 0 3.37-2.56 3.46 3.46 0 0 0-2.46-4.26Z"/><rect width="335.17" height="244.01" x="3621.14" y="1367.58" fill="#47c4e0" rx="8.63"/><path fill="#47c4e0" d="M3864 1327.39h-140.38c-9.86 0-17.88 12.89-17.88 28.73v56c0 3.76 1.9 6.81 4.23 6.81h167.68c2.34 0 4.23-3.05 4.23-6.81v-56c0-15.84-8.02-28.73-17.88-28.73Zm9.42 77.88h-159.21v-49.15c0-8.34 4.22-15.13 9.41-15.13H3864c5.19 0 9.42 6.79 9.42 15.13Z"/><rect width="305.52" height="217.55" x="3635.72" y="1382.62" fill="#fff" rx="8.63"/><ellipse cx="3788.48" cy="1515.71" fill="#dd4936" rx="65.84" ry="65.24"/><rect width="14.88" height="72.3" x="3781.04" y="1479.56" fill="#fff" rx="1.27"/><rect width="72.96" height="14.75" x="3752" y="1508.34" fill="#fff" rx="1.27"/><path fill="#47c4e0" d="M3631.57 1420.4h318.1v13.78h-318.1z"/><rect width="672.62" height="61.42" x="1355.68" y="1639.54" fill="#4b628f" rx="26.51"/><path fill="#f48361" d="m2278.33 1424.89-38.83 33.59s1.9 79.59 37.31 32.32 1.52-65.91 1.52-65.91ZM2163 1632.26c60.45 18.72 96.93-69.29 96.93-69.29l-116.56-22.29s-40.85 72.87 19.63 91.58Z"/><ellipse cx="2189.55" cy="1502.97" fill="#c12e2e" rx="80.2" ry="71.97" transform="rotate(-75.82 2189.677 1502.958)"/><path fill="#f48361" d="M2189.73 1458.07c-22.88 24.15 63.63 74.52 63.63 74.52s52.95 16.67 48.77-14.62-89.52-84.04-112.4-59.9Z"/><path fill="#f48361" d="M2164.11 1499.24c-22.88 24.14 63.63 74.51 63.63 74.51s53 16.68 48.77-14.62-89.51-84.04-112.4-59.89Z"/><path d="m2265 1523.49-56.12-31a3.41 3.41 0 0 0-4.38 1.4 3.27 3.27 0 0 0 1.15 4.46s56.12 31 56.34 31.09a3.35 3.35 0 0 0 3-6Z"/><path fill="#f38476" d="M2036.51 1500.46s-54.15 127-16.25 152 164.25-23.25 164.25-23.25l-54.15-84.06Z"/><path fill="#f59383" d="m2041.92 1586.3-308.22-52.83-166.68 106 488.14 36.84 39.71-4.77s28.88 2.39 103.48-10.73c49.15-8.64 38.5-49.48 38.5-49.48Z"/><path fill="#91d3f3" d="m1676.21 1590.62 31.69 20.51 39.33-46.92-32.93-23.82-38.09 50.23z"/><path fill="#f59383" d="M2248.72 1566.65c-31.54-4.89-144.08 25.94-144.08 25.94l-39.92 23.57s-5.9 56.41 21.2 69.28 60 6.66 60 6.66-2.79 31 5.77 32.46 63.91-10.29 73.77-22.29 27.69-88.07 27.69-88.07 42.67 18.71 48.7 11.9-15.85-53.66-53.13-59.45Z"/><path d="m2254.93 1611.38-34.67-20.78a3.36 3.36 0 0 0-4.51 1.19 3.11 3.11 0 0 0 .91 4.44l34.67 20.78a3.38 3.38 0 0 0 4.52-1.18 3.15 3.15 0 0 0-.92-4.45Z"/><path fill="#f59383" d="m2263.93 1619.39-18 17-6.32 25.93s74-7.15 61.37-48.28Z"/><path d="M2211.67 1616.49h5.84v46.94h-5.84z" transform="rotate(-57.77 2214.414 1639.935)"/><path fill="#fff" d="M1362.08 667c-1.55-40.92-21.73-41.69-21.73-41.69-35.69-6.17-37.24 43.23-37.24 43.23-69.06-13.12-72.94 48.63-72.94 48.63s5.43 99.57 5.43 140.48 42.68 52.49 42.68 52.49 90.78.77 114.06-3.09 35.7-37.82 35.7-37.82 11.64-108.84 5.43-160.55-71.39-41.68-71.39-41.68Z"/><path fill="#bd2446" d="m1248.79 731.08 10.09 131.22c3.88 21.62 27.16 26.25 27.16 26.25l94.66-1.55c27.16-3.86 27.16-25.47 27.16-25.47l4.66-110.38c-84.58 7.72-163.73-20.07-163.73-20.07Z"/><path fill="#fffffc" d="M1275.95 779.71h110.19v28.56h-110.19z"/><path fill="#d1e2ef" d="M1265.09 687.08s-21.73 20.07-16.3 44c0 0 63.63 20.84 86.13 17l11.64-63.29s-72.16-9.28-81.47 2.29Z"/><path fill="#100e09" d="M3160.89 581.11a5.28 5.28 0 1 0 5.33 5.28 5.31 5.31 0 0 0-5.33-5.28Z"/><path fill="#f8ad99" d="M1661.24 1007.88c-37.85-19.75-50.82 15.89-41.63 41.49 8.79 26.4 40.26 18.94 40.26 18.94s7.85 21.73 36.22 40 88.29 27.33 132.24-13.07 12.47-154.09 12.47-154.09c-38.91-122.87-202.59-45.71-179.56 66.73Z"/><path fill="#f8ad99" d="m1797 1034.63-2.26-2.74a2 2 0 0 0-1.3-.54 1.84 1.84 0 0 0-1.85 1.85l.07.49a1.84 1.84 0 0 0 .47.81c.76.91 1.51 1.83 2.26 2.74a1.4 1.4 0 0 0 .59.38 1.36 1.36 0 0 0 .72.16 1.84 1.84 0 0 0 1.84-1.84l-.06-.5a1.86 1.86 0 0 0-.48-.81Z"/><path fill="#fff" d="M1780.14 1064.11a23.13 23.13 0 0 1-22.92-12.42s-6.34 26.25 14.42 26.25 24.81-20.12 24.81-20.12c-2.7 6.7-16.31 6.29-16.31 6.29Z"/><path fill="#421818" d="M1794.86 1056.88c-1.85 4.34-8.13 5.08-12.2 5.32-1.54.09-3.14.18-4.68.21a21.31 21.31 0 0 1-10.63-2.75 20.87 20.87 0 0 1-8.53-8.9 1.56 1.56 0 0 0-1.87-.87 1.88 1.88 0 0 1 2 2.29c-.21.89-.35 1.8-.49 2.71v.3c0 .24-.06.48-.08.71s-.05.59-.08.88a25.54 25.54 0 0 0 17.51 9.24 49 49 0 0 0 6.41-.1 32.89 32.89 0 0 0 8-1.27c.62-.19 1.25-.43 1.87-.68a21.75 21.75 0 0 0 2.57-6.64l3.38 1.42c-1.09 2.54-3.44 4.17-6 5.22l-.22.4a22.41 22.41 0 0 1-12 10.39c-5.42 1.88-13.1 2.37-17.45-1.69-3.24-3-4.19-7.7-4.3-12 0-1.19 0-2.38.08-3.56l.06-.7a22.9 22.9 0 0 1-2.68-4.16 1.93 1.93 0 0 1 1.32-2.73 1.62 1.62 0 0 0-1.51 1.31c-1.8 7.49-1.79 17.21 3.38 23.38 4.6 5.47 12.55 5.92 19.07 4.57a25.65 25.65 0 0 0 15.9-10.86 28.46 28.46 0 0 0 4.44-10c.49-1.92-2.4-3.47-3.27-1.44Z"/><path fill="#421818" d="m1798.05 1058.75-3.38-1.42a21.75 21.75 0 0 1-2.57 6.64c2.51-1.05 4.9-2.68 5.95-5.22ZM1758.49 1055c0-.15 0 .13 0 0ZM1755.63 1052.62a22.9 22.9 0 0 0 2.68 4.16c0-.29 0-.58.08-.88s0-.47.08-.71v-.15c0 .13 0-.15 0 0v-.15c.14-.91.28-1.82.49-2.71a1.88 1.88 0 0 0-2-2.29 1.93 1.93 0 0 0-1.33 2.73Z"/><path d="M1847.94 824.87c-26.12-14.06-48.78.77-48.78.77s-73.89-17.65-128.5 24.74-54.34 77-54.34 77-30.69 14.44-30.38 33.73 30.1 74.73 30.1 74.73 8.1-51.2 45.2-27.94c0 0 24.27 3 28.46-17.31s-17.51-44.77-17.51-44.77 35.38-24.86 90-40.72c29.63-8.6 64.06 5.83 64.06 5.83s57.26-57.02 21.69-86.06Z"/><path fill="#fff" d="m1682.14 1487.94-48.13-155c-.01 9.54 26.47 128.77 48.13 155Z"/><path fill="#263249" d="m3349.49 518.85 6.22 43.27-44.14 98.69c115.32-22.44 49-144.78 49-144.78Z"/><path fill="#263249" d="M3298.65 454.36c-116.88-55.72-158.82 28.38-158.82 28.38 11.76-10.18 129.61 35.71 129.61 35.71l23.34 24.77-6.55 39.47 57.33 52.47s71.98-125.08-44.91-180.8Z"/><path fill="#f8ad99" d="M3323.83 574.43c-18-5.91-37.6 8.26-37.6 8.26l13.57-32s-81.48-149.9-146.32-48.91c0 0-37.42 109.3-15.6 167.09s75.46 43.89 107 29.7 45-35.26 45-35.26 31.3 7.66 49.25-22.09 2.71-60.87-15.3-66.79Z"/><path d="M3323.08 592.85a3.28 3.28 0 0 0-4.55.55l-26.06 32.94a3.19 3.19 0 0 0 .55 4.5 3.3 3.3 0 0 0 2.23.68 3.25 3.25 0 0 0 2.32-1.22l26.06-32.95a3.19 3.19 0 0 0-.55-4.5Z"/><path d="m3325 614.21-20.23-1.21a3.17 3.17 0 0 0-3.42 3 3.21 3.21 0 0 0 3 3.39l20.25 1.18h.42a3.21 3.21 0 0 0 0-6.4ZM3212.59 634.16a3.26 3.26 0 0 0-3.48.06l-31.45 20.63a3.21 3.21 0 0 0-1.4 2.09 3.17 3.17 0 0 0 .55 2.44c.38.53 8.3 11.35 18.2 10.64a13.35 13.35 0 0 0 4.79-1.27c11-5.17 14-28.82 14.31-31.5a3.19 3.19 0 0 0-1.52-3.09ZM3197 663c-4.83 2.27-9.94-1.83-12.75-4.75l22.21-14.57c-1.71 8.05-4.96 17.18-9.46 19.32Z"/><path fill="#263249" d="M3245.35 459.13c-3-.42-58.33.36-58.33.36s-46.15 21.63-47.19 23.25-14.42 58.89-14.42 58.89 29.12-7.87 49.89-8.53l20.77-.66 6.1-33.59 2.41 36a112.23 112.23 0 0 1 29.8 8 113.55 113.55 0 0 1 25.26 15.15l11.79-28.72-3.33 35.36 18.13 18.1 23.69-25.25-19.64-47.62s-41.93-50.31-44.93-50.74Z"/><path fill="#100e09" d="M3197.33 568.59c9.75-.86 29.49 1.46 38.79 5-1.92-6-26.8-13.18-38.79-5ZM3137.3 573.09c8.2-2.1 25.38-2.87 33.82-1.16-2.5-4.85-24.75-7.5-33.82 1.16Z"/><path d="M3191.53 632.49c-3.71-1.27-10.74.68-12.45-4.18-1.63-4.63 3.25-6.41 4.39-9.94s.21-9.2.19-13c0-5.09-.15-10.18-.29-15.27a1.06 1.06 0 0 0-2.12 0q-.54 10.5-.81 21c0 1.47.32 4.33-.13 5.73s-1.53 2.06-2.36 3.13a11.9 11.9 0 0 0-2.65 5.25c-1.73 9.47 8.84 12.55 16.23 11.36 2.21-.39 1.76-3.48 0-4.08Z"/><ellipse cx="3331.18" cy="478.16" fill="#263249" rx="49.12" ry="48.67"/><path fill="#f8d1cc" d="m3118.86 810.71 14.13-33.1c-9.21 16.72-20.15 34.29-20.15 34.29l28.88 42.93-42.12 58.42 18.05 116.85-9.65-114.47 44.52-62ZM3145.33 748.71l-12.33 28.9c7.22-13.14 13.39-25.75 12.33-28.9ZM3339.05 784.48l-30.08-66.77 21.66 66.77-32.49 33.39 48.14 36.96-34.9 203.88 44.52-206.27-46.93-33.38 30.08-34.58z"/><rect width="107.1" height="44.29" x="3302.75" y="905.22" fill="#7471b3" rx=".79"/><path fill="#d6852f" d="M2689.17 2493.28c-26.28-5.91-84.61-13.37-129.11-26.77-61.81-18.61-102.73-55.32-128.23-53s-14.29 42.32-69.48 53-101.89-10.73-104.64-11.17c-11.3 9.39-19.29 97-.63 115.42s155.52 5.06 155.52 5.06l112 2.84 109-14.27 81.17-36.69s.68-28.52-25.6-34.42Z"/><path fill="#ea9842" d="M2250.49 2473.55c.69.32 1.34.66 2 1l1.91-4.08c-1-.45-1.91-.92-2.86-1.37-.35 1.4-.7 2.9-1.05 4.45ZM2367.91 2569.27c.67 3.15 1.21 6.45 1.62 9.77l3.88-.22.67-.08c-.44-3.54-1-7-1.74-10.39ZM2545.15 2487a24.42 24.42 0 0 0 3-2.3c-.63-.23-1.28-.43-1.9-.66Z"/><path fill="#6f3015" d="M2571.74 2564.27c-9 1.33-18.36 2.44-27.87 3.32-53.13 4.92-104.57 2-142.13-.14-16.19-.91-30.17-1.71-41.16-1.73-36-.07-94.56 2.88-111.54 3.78l-.33 5.88 139.84 3.83 128.29 3.55 102.16-15.49 103.12-33.69-2.75-8.78c-12.81 5.2-72.45 28.41-147.63 39.47Z"/><path fill="#361c0e" d="M2572.33 2568.24c-86.14 12.67-170.59 1.56-211.76 1.49-42.66-.08-116.08 4-116.08 4l3.54 44.62s71.77.06 139.12-10.87c-.88-9.31-3.29-20.5-3.29-20.5s78 1.51 115.61 5.41 196.89-22.93 230.26-49.5c-1.78-4.53-6.2-15.52-6.2-15.52s-65.05 28.2-151.2 40.87Z"/><path fill="#6f3015" d="m2247.32 2609.35.71 9s71.77.06 139.12-10.87c-.27-2.81-.67-5.8-1.11-8.58-25.35 3.44-106.5 13.72-138.72 10.45ZM2482.84 2591c6.06.43 11.7.89 16.63 1.41 37.6 3.89 196.89-22.93 230.26-49.5l-2.23-5.62c-20.25 9.77-91.79 40.41-244.66 53.71Z"/><path fill="#361c0e" d="M2524.11 2459a6.34 6.34 0 0 0-8.25 3.41 6.25 6.25 0 0 0 3.44 8.18 6.34 6.34 0 0 0 8.26-3.41 6.24 6.24 0 0 0-3.45-8.18ZM2505.89 2451.52a6.34 6.34 0 0 0-8.25 3.41 6.25 6.25 0 0 0 3.44 8.19 6.36 6.36 0 0 0 8.26-3.42 6.24 6.24 0 0 0-3.45-8.18ZM2487.66 2444.1a6.34 6.34 0 0 0-8.25 3.41 6.25 6.25 0 0 0 3.44 8.18 6.34 6.34 0 0 0 8.26-3.41 6.23 6.23 0 0 0-3.45-8.18ZM2469.44 2436.67a6.33 6.33 0 0 0-8.25 3.41 6.24 6.24 0 0 0 3.44 8.18 6.35 6.35 0 0 0 8.26-3.41 6.25 6.25 0 0 0-3.45-8.18ZM2451.22 2429.24a6.36 6.36 0 0 0-8.26 3.41 6.27 6.27 0 0 0 3.45 8.19 6.36 6.36 0 0 0 8.26-3.41 6.27 6.27 0 0 0-3.45-8.19Z"/><path fill="#a94f25" d="M2446.06 2432.81a3.39 3.39 0 0 0 3.46 4.64 3.42 3.42 0 0 0 2.83-2.07l8-19.29q-3.21-1.43-6.27-2.63ZM2464.28 2440.24a3.35 3.35 0 0 0 1.86 4.39 3.38 3.38 0 0 0 4.43-1.83l7.46-18c-2.06-1.08-4.07-2.12-6.05-3.13ZM2482.51 2447.66a3.36 3.36 0 0 0 1.85 4.4 3.3 3.3 0 0 0 1.6.24 3.4 3.4 0 0 0 2.84-2.07l6.71-16.19-6-3.18ZM2500.73 2455.09a3.36 3.36 0 0 0 1.85 4.4 3.48 3.48 0 0 0 1.61.24 3.38 3.38 0 0 0 2.83-2.07l6.1-14.72c-2.07-1-4.09-2-6.09-3ZM2519 2462.52a3.34 3.34 0 0 0 1.84 4.39 3.38 3.38 0 0 0 1.61.25 3.43 3.43 0 0 0 2.84-2.08l5.78-14c-2.11-.89-4.16-1.82-6.21-2.73Z"/><path fill="#65082c" d="m3246.14 2502.09-27.89 155.33s32.79 9.12 37.15-1.15 53.4-160.19 60.06-174-69.32 19.82-69.32 19.82Z"/><path fill="#460e25" d="M3218.25 2657.42s2.68.75 6.6 1.57l35.81-163.08c-8.5 3.51-14.52 6.18-14.52 6.18Z"/><path fill="#65082c" d="M3312.69 2471.44 3204.22 2514l-112.66 83.12s-143.6-25.24-150.23-30.54c-2.16-1.72-3.23-1.94-3.7-1.43-1 1-.84 6.17 1.42 10.19 4.81 8.55 16.73 18.5 33.6 27.73 19.84 10.86 67.91 35.43 117.66 32.17 19.87-1.31 39.47-24.9 54.86-41.64 3.63-4 7.38-8 11.39-11.91 2.26-2.19 4.62-4.57 7.12-7.09 20.61-20.82 52-46.16 113.9-56.46a55.2 55.2 0 0 0 33.19-20.9c10.02-18.74 1.92-25.8 1.92-25.8Z"/><path fill="#af1e4e" d="m3219.69 2649.41-1.44 8s32.79 9.12 37.15-1.15c.39-.93 1.14-3 2.18-5.92-11.08 3.76-27.25 1.4-37.89-.93Z"/><path fill="#9f1b39" d="M3301.85 2333.15c-6.48-2.23-29.78 1.75-50.74 23.77l-28.77-5.43c-24.52-24.51-52.88-39.75-95-37.56 3.06 19.24-5.9 60.55-5.9 60.55s9.09-40 0 0-32.21 106.15-62.78 128.22c-37.28 26.92-62.41 31.79-94.84 34.37-38.49 3-24.55 31.47-24.55 31.47s57.33 49.73 143.8 54.6c37.91-1 50.16-24.32 70.71-44.19s49.07-56 119.75-67.74c24.81-5.33 43.16-18.71 45.47-41.89 1.43-14.48-5.83-53.15-11.48-80.16-1.4-6.94-4.9-40.48-5.67-56.01Z"/><path fill="#65082c" d="m3196.39 2507.04 23.7 4.3 28.83-156.01-23.69-4.3-28.84 156.01z"/><path d="M3203 2516.89c-65.82 28.16-82.11 84.59-131.29 87.47-38.64 2.26-107.21-32.47-134.83-47.46a27.77 27.77 0 0 0 2.45 11.64s57.33 49.73 143.8 54.6c37.91-1 50.16-24.32 70.71-44.19s49.07-56 119.75-67.74c24.81-5.33 43.16-18.71 45.47-41.89a85.56 85.56 0 0 0-.43-15.11c-17.81 28.31-62.94 40.12-115.63 62.68Z" style="mix-blend-mode:multiply" fill="#d8a6b9"/><path fill="#fff" d="m3208.08 829.72-33.1-64.48-5.2 2.67 36.69 71.45 76.23-73.06-4.04-4.22-70.58 67.64z"/><path d="M1796.72 1025.62c-1.81-2-1.62-.16-2.57-4.69a56.48 56.48 0 0 1-.56-5.95c-.76-8-1.68-15.87-2.67-23.79-.19-1.56-2.6-1.66-2.52 0 .27 5.95.55 11.9 1 17.84.2 3 .44 6 .66 8.92.16 2.18-.07 5 .72 7.1 1.42 3.79 5.68 4.75 6 9.43.57 7.94-9.51 5.84-14.22 7.83-2.57 1.08-2.28 4.64.66 4.9 9.54.85 21.81-5.15 17.3-16.48-.89-2.2-2.3-3.41-3.8-5.11Z"/><path fill="#100e09" d="M1822.25 950.77c-12 1.57-21.16 6.32-20.59 10.59s10.72 6.47 22.67 4.9 21.16-6.32 20.58-10.59-10.72-6.48-22.66-4.9ZM1742.77 956.48c-12 .59-21.62 4.56-21.4 8.88s10.14 7.32 22.18 6.74 21.61-4.56 21.4-8.87-10.14-7.33-22.18-6.75Z"/><path d="M1648 1024.67c-4.7-1.81-9.68 1-9.89 1.16l1.47 2.53s4-2.28 7.38-1c1.87.72 3.29 2.46 4.22 5.17-.41 2.14-3 13.93-11.13 13.93v2.92c11.35 0 14-16.05 14.07-16.74l.06-.34-.11-.32c-1.25-3.76-3.29-6.23-6.07-7.31Z"/><path fill="#f26e43" d="M1923.37 2378.63h247.9v5.84h-247.9z" transform="rotate(-.82 2057.471 2393.278)"/><path fill="#f26e43" d="M2220.31 2364.92h248.44v5.84h-248.44z" transform="rotate(-3.85 2347.619 2370.674)"/><path fill="#f26e43" d="m1961.13 2013.72-2.26-.47c-2.62-.55-263.11-55-334.45-71.52-69-16-60.41-195.5-60.31-197.31l-5.83-.31c0 .46-2.35 46.73 4.23 94.45 3.89 28.16 10.07 51.34 18.38 68.92 10.63 22.48 24.83 35.92 42.22 39.94 67.84 15.68 306.43 65.66 332.31 71.07L1965 2381l5.84-.15-9.65-364.85Z"/><path fill="#f26e43" d="M2240.53 2202.98h5.84v167.57h-5.84z" transform="rotate(-17.55 2243.91 2287.124)"/><path fill="#fff" d="M1675.1 1657.13c-20.69 48.45-59.81 121.95-128.64 197-72.17 78.66-121.75 124.16-165.78 152.11-45.58 29-88.44 40.69-139 38-41-2.14-78-28.43-98.88-70.32-22.65-45.34-22.85-99.49-1.85-147.75 6.38 9.24 13.65 14.22 19.52 16.91a137 137 0 0 0 45.49 11.45c20.37 1.46 38.12-2.53 51.32-11.53 20.76-14.14 30.29-39.6 28.32-75.66l-.08-1.57-.79-1.36c-.83-1.42-20.73-35-55.12-36.13-27.52-.92-55.32 19.21-82.63 59.8q-2.52 3.76-4.86 7.58c-5.1-22-3.68-51.5 4.22-86.16 11.22-49.23 35.15-108.58 71.13-176.41 25.53-48.12 47.65-113.28 65.75-193.69 14.53-64.53 26.54-139.08 35.7-221.57 16.56-149.08 17.9-270.33 17.9-271.43h-13.08c0 1.09-1.33 121.57-17.82 270-9.11 82-21 156.07-35.46 220.14-17.84 79.27-39.56 143.34-64.54 190.44-36.52 68.83-60.85 129.27-72.33 179.62-9.59 42.07-10.12 76.17-1.57 101.37.42 1.24.86 2.44 1.31 3.6-26.84 54-28.1 116.4-2.23 168.21 23.06 46.16 64.14 75.14 109.9 77.53q7.31.38 14.42.38c47.27 0 88.62-12.73 132.26-40.45 45-28.6 95.41-74.75 168.41-154.31 70.23-76.56 110.13-151.64 131.23-201.14 22.94-53.83 29.15-89.11 29.4-90.59l-12.89-2.21c-.05.36-6.28 35.6-28.73 88.14Zm-517.26 138.27c24.6-36.55 48.55-54.76 71.27-54 23.83.74 39.87 22.84 43.53 28.39 1.33 30.26-6.3 51.27-22.71 62.45-26 17.71-66.32 7.09-84-1-5.42-2.47-12.51-7.78-18.11-19.15q4.55-8.53 10.02-16.69Z"/><path fill="#263249" d="m3120.64 1255.42-62.57 455.46 14.44 286.12 430.77 19.08s132.36-490 4.82-745.19c0 .03-358.58 15.53-387.46-15.47Z"/><path fill="#fff" d="M3327 1254.25s16.08 475.92 26.54 492.59 182.34-21.69 194.8-34.49-30.4-540.17-30.4-540.17Z"/><path fill="#c45643" d="M3116.26 1025.2c-2.45-7.84-10.45-13.79-17.87-13.29l-204 13.62c-7.41.5-11.44 7.25-9 15.09l99.16 316.82c2.45 7.84 10.45 13.79 17.86 13.3l204-13.63c7.42-.5 11.44-7.25 9-15.09Z"/><path fill="#dd6b50" d="M3092.44 1026.73c-2.45-7.84-10.45-13.79-17.87-13.29l-204 13.62c-7.41.5-11.44 7.25-9 15.09l99.21 316.85c2.46 7.84 10.46 13.79 17.87 13.3l204-13.63c7.42-.49 11.44-7.25 9-15.09Z"/><path fill="#f6a196" d="M2952.65 1229.56a109.7 109.7 0 0 0 13.31-.26 69.81 69.81 0 0 0-13.31.26Z"/><path fill="#f6a196" d="M2947 1192.74s33.77-12.35 25.32-23.3c-7.53-9.77-103.24-35.8-123-23.38-23.29 14.61 18.92 34.33 18.92 34.33s-21.1 5.38-19 23.69a33.47 33.47 0 0 0 16.18 25.48s-5.63 18.58 4.22 30.75 96.86 11.37 109.52-12.24c7.52-14-3.23-17.91-13.2-18.77a109.7 109.7 0 0 1-13.31.26 69.81 69.81 0 0 1 13.31-.26c11.57-.93 26.64-4.15 27.5-14.58 1.41-17.05-46.46-21.98-46.46-21.98Z"/><path d="m2938.08 1183.83-69.64-5.82a2.36 2.36 0 0 0-2.61 2.18 2.39 2.39 0 0 0 2.2 2.58l69.65 5.82h.2a2.39 2.39 0 0 0 .2-4.77ZM2952.68 1228l-74.57-.82a2.39 2.39 0 1 0-.05 4.77l74.57.83a2.39 2.39 0 1 0 0-4.78Z"/><path fill="#fff" d="m3463.57 1318.61 74 402.08 19.9-18.16c72.2-307.61-48.13-448.3-48.13-448.3Z"/><path fill="#fff" d="m3526.25 1422.62 15.99 165.55-129.58 29.11-12.36-150.46-5.81.47 12.9 157.15 141.16-31.7-16.49-170.68-5.81.56z"/><path fill="#e19e8c" d="m3106.2 1997.03 31.07 314.58 171.08 4.96-26.47-324.31-175.68 4.77z"/><path fill="#f8ad99" d="m3266.39 2005.09 22.26 419.1 153.59-39.92 40.74-370.23-211.18-21.46-5.41 12.51z"/><path fill="#65082c" d="m3445.06 2528.91 18.8 171s37.1-.41 38.49-12.48 6.38-183.8 9.08-200.26-66.37 41.74-66.37 41.74Z"/><path fill="#460e25" d="m3445.06 2528.91 18.8 171s3 0 7.39-.36L3458.34 2518a816.438 816.438 0 0 0-13.28 10.91Z"/><path fill="#65082c" d="m3505.19 2476.66-100.28 77.45-92.14 121.13s-157.95 17.14-166.52 13.6c-2.79-1.15-4-1.05-4.31-.38-.69 1.37 1 6.72 4.64 10.24 7.66 7.49 23.19 14.28 43.68 18.82 24.11 5.35 82 16.48 133-2 20.38-7.4 33.58-38 44.51-60.21 2.58-5.23 5.24-10.64 8.23-15.91 1.69-3 3.43-6.18 5.26-9.58 15.12-28 40.14-64.06 101.68-93.61a59.72 59.72 0 0 0 28.24-31.93c4.66-22.69-5.99-27.62-5.99-27.62Z"/><path fill="#af1e4e" d="M3463.86 2699.9s37.1-.41 38.49-12.48c.12-1.08.27-3.45.45-6.85-10.43 7.29-28.07 9.72-39.91 10.5Z"/><path fill="#bd2446" d="M3474.43 2392.12c-3.66-6.82-17.68-40.85-23.28-56.87-7.46-.37-30.6 10.86-45.71 40.25l-31.76 3c-33.22-18.21-67.58-25.55-110.93-10.49 9.14 19.2 12.54 65.14 12.54 65.14s-2.84-44.59 0 0-.9 120.83-26 153.2c-30.68 39.47-55.44 52.19-88.56 64.72-39.31 14.86-16 40.37-16 40.37s75.31 34.65 167.23 13.53c39.34-12.53 45-40.66 60.3-67.68s34-73.46 104.3-107.19c24.3-13.1 39.36-32.66 34.61-57.62-2.96-15.55-22.49-53.81-36.74-80.36Z"/><path fill="#65082c" d="m3376.55 2377.19 18.02 171.98 26.11-2.68-18.03-171.99-26.1 2.69z"/><path d="M3506.07 2456.83c-9.87 35-53.42 61.06-101.57 100.64-60.12 49.43-59.73 113.41-110.27 131.34-39.71 14.08-122.13-1.47-155.64-8.78a30.49 30.49 0 0 0 6.15 11.44s75.31 34.65 167.23 13.53c39.34-12.53 45-40.66 60.3-67.68s34-73.46 104.3-107.19c24.3-13.1 39.36-32.66 34.61-57.62a94.21 94.21 0 0 0-5.11-15.68Z" style="mix-blend-mode:multiply" fill="#d8a6b9"/><path fill="#263249" d="M3333 1971.4c-26.47-10.14-125.74-29.21-125.74-29.21s-48.13 1.79-72.8 11.92-46.93 41.13-46.93 41.13 217.79 2.39 244.27 5.37 27.69-19.08 1.2-29.21Z"/><path fill="#f79836" d="M2413.34 2568c-28.18-9.89-91.46-25.6-138.74-46.09-65.66-28.45-105.94-74.16-134.35-74.83s-21.28 44.79-83.48 49.44-110.86-24.91-113.83-25.75c-13.68 8.89-34 104.38-15.81 127.08s170.69 25.57 170.69 25.57l123 17.53 122-1.7 94.24-30s4.47-31.38-23.72-41.25Z"/><path fill="#ea9842" d="M2049.44 2610.41c.32 3.55.49 7.26.51 11l4.3.26h.75c0-4-.21-7.88-.55-11.67ZM2255.49 2542.55a26.4 26.4 0 0 0 3.57-2.15c-.66-.33-1.35-.63-2-1Z"/><path fill="#6f3015" d="M2274.67 2631.11c-10.06.3-20.55.32-31.15.07-59.18-1.41-115.47-11.24-156.57-18.43-17.72-3.09-33-5.76-45.12-7.2-39.71-4.71-104.56-9-123.38-10.17l-1.14 6.43 153.56 22.2 140.88 20.41 114.55-3.93 118-23.87-1.88-10c-14.73 4.08-83.48 21.97-167.75 24.49Z"/><path fill="#361c0e" d="M2274.8 2635.55c-96.57 2.89-188.16-20.21-233.51-25.58-47-5.58-128.41-10.48-128.41-10.48l-2 49.61s79.06 9.31 154.7 5.92c.25-10.37-.94-23-.94-23s85.74 11.68 126.66 20.82 219.93.06 260.18-24.93c-1.37-5.22-4.8-17.9-4.8-17.9s-75.31 22.66-171.88 25.54Z"/><path fill="#6f3015" d="m1911.33 2639.06-.4 10s79.06 9.31 154.7 5.92c.08-3.13 0-6.47-.1-9.6-28.37.53-119.13 1.42-154.2-6.32ZM2173.22 2649.14c6.62 1.26 12.77 2.49 18.13 3.7 40.93 9.12 219.93.06 260.18-24.93-.43-1.64-1.06-4-1.72-6.48-23.59 8.14-106.43 32.7-276.59 27.71Z"/><path fill="#361c0e" d="M2236 2509a7 7 0 0 0-9.53 2.7 6.92 6.92 0 0 0 2.72 9.45 7 7 0 0 0 9.54-2.7 6.9 6.9 0 0 0-2.73-9.45ZM2216.88 2498.42a7 7 0 0 0-9.54 2.7 6.93 6.93 0 0 0 2.72 9.46 7.07 7.07 0 0 0 9.55-2.7 6.92 6.92 0 0 0-2.73-9.46ZM2197.77 2487.9a7.05 7.05 0 0 0-9.54 2.69 6.93 6.93 0 0 0 2.73 9.46 7 7 0 0 0 9.54-2.7 6.9 6.9 0 0 0-2.73-9.45ZM2178.67 2477.37a7 7 0 0 0-9.54 2.69 6.92 6.92 0 0 0 2.72 9.46 7 7 0 0 0 9.54-2.69 6.92 6.92 0 0 0-2.72-9.46ZM2159.56 2466.84a7.06 7.06 0 0 0-9.54 2.7 6.92 6.92 0 0 0 2.73 9.46 7 7 0 0 0 9.54-2.7 6.93 6.93 0 0 0-2.73-9.46Z"/><path fill="#a94f25" d="M2153.41 2470.11a3.76 3.76 0 0 0 6.59 3.63l11.35-20.21c-2.24-1.33-4.42-2.56-6.56-3.7ZM2172.52 2480.64a3.72 3.72 0 0 0 1.46 5.08 3.79 3.79 0 0 0 5.13-1.45l10.58-18.85c-2.13-1.46-4.21-2.86-6.26-4.23ZM2191.63 2491.16a3.71 3.71 0 0 0 1.46 5.08 3.66 3.66 0 0 0 1.73.47 3.77 3.77 0 0 0 3.4-1.92l9.52-17c-2.14-1.45-4.19-2.86-6.23-4.27ZM2210.73 2501.69a3.72 3.72 0 0 0 1.46 5.08 3.66 3.66 0 0 0 1.74.47 3.77 3.77 0 0 0 3.39-1.92l8.65-15.42a538.17 538.17 0 0 1-6.32-4.1ZM2229.84 2512.21a3.72 3.72 0 0 0 1.46 5.08 3.68 3.68 0 0 0 1.74.48 3.77 3.77 0 0 0 3.39-1.92l8.21-14.64c-2.21-1.25-4.35-2.54-6.49-3.81Z"/><ellipse cx="1715.2" cy="1045.93" fill="#ef6164" rx="27.46" ry="25.8"/><path fill="#ef6164" d="M1825 1050c.66 10.55 8 19.18 17.9 22.57 8-16.23 7.53-36.64 9.36-49.94-.49 0-1-.08-1.46 0-15.11.89-26.66 13.17-25.8 27.37Z"/><ellipse cx="884.96" cy="2495.69" fill="#aacfeb" rx="129.11" ry="31.42"/><path fill="#2586b5" d="M946.13 1239.56s-12.69 103.72-28.55 150.87-30.92 92.2-19.16 205.35 19.06 122.59 21.75 151.92-1.53 153 4.81 173.41S888 2083 884.8 2143.74s-14.8 149.82 0 188.58l8.46-5.23s-22.21-94.3 11.63-207.45 19-127.79 76.13-198.53 61.33-217.41 61.33-217.41 27.49-166.59 0-239.93-29.61-146.68-96.22-224.21ZM767.43 1815.28c27-56.58-12.69-202.73 25.7-267.89S811.84 1380 803 1340.67s.9-66 8.83-107.43-8.83-101.59-8.83-101.59c-1.43 51.33-40.86 121.53-69.41 166.58s-82.48 167.64-76.13 223.17 3.17 59.72 3.17 59.72c-20.09 74.38 0 95.34-6.34 176s45.46 74.39 47.58 125.73S771.66 2021.15 803 2083s24.69 186.49 24.69 186.49L852 2298.8c15.86-154-43.35-249.36-75.07-321.65s-36.46-105.29-9.5-161.87Z"/><path fill="#91d3f3" d="M738.81 1476.27s-21.14 94.3-5.28 145.64 34.89 91.15 33.83 168.68 60.27 106.87 59.22 149.82 12.68 89.06 24.31 123.63-5.28 166.59 5.29 227.35 21.15 57.61 21.15 57.61-15.86-79.63-11.63-109 13.74-128.87 11.63-165.54 14.8-66 16.92-129.92 15.86-121.53-12.69-202.21-23.26-177-142.75-266.06ZM1138.63 1817.52c-38.06 67.58-63.89 117.87-85.87 157.16s-53.7 28.29-80.66 58.15c-22.6 25-43.47 83.24-51.39 112.78a115.86 115.86 0 0 1-11.26 27.48c-4.5 7.86-9.78 17.42-13 24.23-6.35 13.62-12.29 91.15-12.29 91.15l7-2.62s-10.75-107.74 78.07-147 148.73-38.41 190-132.71 41.24-223.16 55.51-249.88c.02-.03-38.05-6.26-76.11 61.26Z"/><path fill="#91d3f3" d="M671.14 1976.1c-9.51-38.77 1.06-155.06-59.21-220 0 0 8.46 72.32 0 91.69s-80.36 109.47-38.06 184.9 137.45 66 167.06 82.77 59.21 7.34 64.5 23 29.6 71.25 38.06 131l9.52 8.9s-7.4-133.58-48.64-187-123.71-76.5-133.23-115.26Z"/><path fill="#33a8df" d="m861.82 2184.6 3.53-144.6s-7.05-113.15-19.74-205.35-106.8-358.39-106.8-358.39-21.14 94.3-5.28 145.64 34.89 91.15 33.83 168.68 60.27 106.87 59.22 149.82 12.68 89.06 24.31 123.63-5.28 166.59 5.29 227.35c5.79 33.29 11.58 47.38 15.64 53.34-23.76-48.54-10-160.12-10-160.12ZM1061.31 2035.82c-38.07 21-75.31 29.75-112.08 80.68s-52.87 98-52.87 98-9.28 45.31-11.7 68.42c-.29 3.5-.45 5.59-.45 5.59l7-2.62s-10.75-107.74 78.07-147 148.73-38.41 190-132.71 41.24-223.16 55.51-249.88c0 0-52 75.29-79.44 136.06s-35.98 122.51-74.04 143.46Z"/><path fill="#33a8df" d="M788.51 2100.78c-24.32-29.33-130.06-71.24-162.64-100.58s9.32-109 13.55-142.32-27.49-101.8-27.49-101.8 8.46 72.32 0 91.69-80.36 109.47-38.06 184.9 137.45 66 167.06 82.77 59.21 7.34 64.5 23 29.6 71.25 38.06 131l4.16 3.89c-2.34-23.62-6.54-59.37-12.62-85.61-9.86-42.59-22.2-57.6-46.52-86.94Z"/><path fill="#f79836" d="M996.24 2177.12H758.68c-8.42 0-14.63 11.41-12.68 23.3l44.86 274.24c1.4 8.54 6.64 14.56 12.68 14.56h147.83c6 0 11.29-6 12.68-14.56l44.87-274.24c1.94-11.89-4.27-23.3-12.68-23.3Z"/><path fill="#fff" d="M775.63 2381.57h203.65l16.11-98.49H759.52l16.11 98.49z"/><path fill="#f8d1cc" d="M3327 1254.25c57.45 15.27 198.64-9.13 198.64-9.13 72.94-18.45 85.36-72.27 85.36-72.27-37.23 66.15-284 81.4-284 81.4ZM3414.3 1027.91l37.25-6.92-22.12-76.13-15.13 83.05zM3548.94 1418.13l17.84 141.48-106.31 26.14-33.36-149.17-9.32 3.08 34.92 156.86 121.06-27.68-18.63-152.25-6.2 1.54z"/><ellipse cx="3214.29" cy="595.97" fill="#100e09" rx="8.81" ry="11.01"/><ellipse cx="1755.33" cy="995.15" fill="#100e09" rx="9.43" ry="11.9"/><ellipse cx="1822.9" cy="990.46" fill="#100e09" rx="9.24" ry="11.65"/><path fill="#100e09" d="M3154.63 585.56c-4.74 0-8.59 4.85-8.59 10.83s3.85 10.83 8.59 10.83 8.59-4.85 8.59-10.83-3.85-10.83-8.59-10.83Z"/><path fill="#ef6164" d="M3246.61 616.16c-12.77-.42-23.45 9-23.84 21s9.63 22.06 22.41 22.48 23.44-9 23.84-21-9.64-22.07-22.41-22.48ZM3132.31 614.54h-1.23c1.17 11.25.21 28.43 6.49 42.32 8.44-2.58 14.86-9.65 15.71-18.52 1.14-11.95-8.28-22.61-20.97-23.8Z"/></g></svg>