<svg xmlns="http://www.w3.org/2000/svg" enable-background="new 0 0 600 400" viewBox="0 0 600 400"><circle cx="191.389" cy="120.474" r="48.203" fill="#F6F2F1" fill-rule="evenodd" clip-rule="evenodd"/><path fill="#F6F2F1" fill-rule="evenodd" d="M549.224,357.516H44.815c0,0-3.981-27.847,19.293-37.359
			s24.448,16.947,69.057-26.217c44.609-43.164,18.974-102.759,71.705-115.809c52.731-13.051,96.305,41.477,128.008,16.571
			c31.703-24.906-2.223-93.757,61.619-91.624c63.842,2.133,39.229,117.08,87.34,128.867
			C529.949,243.732,549.224,357.516,549.224,357.516z" clip-rule="evenodd"/><rect width="441.086" height="26.297" x="70.301" y="211.016" fill="#464D7B" fill-rule="evenodd" clip-rule="evenodd"/><path fill="#0A0909" d="M496.776,211.437H85.298c-0.232,0-0.42-0.188-0.42-0.421V41.795c0-0.232,0.188-0.421,0.42-0.421h411.478
				c0.232,0,0.42,0.188,0.42,0.421v169.221C497.196,211.249,497.008,211.437,496.776,211.437z M85.718,210.595h410.637V42.216
				H85.718V210.595z"/><path fill="#0A0909" d="M496.776,126.827H85.298c-0.232,0-0.42-0.188-0.42-0.421s0.188-0.421,0.42-0.421h411.478
				c0.232,0,0.42,0.188,0.42,0.421S497.008,126.827,496.776,126.827z"/><path fill="#0A0909" d="M179.982,211.437c-0.232,0-0.42-0.188-0.42-0.421V41.795c0-0.232,0.188-0.421,0.42-0.421
				s0.42,0.188,0.42,0.421v169.221C180.402,211.249,180.214,211.437,179.982,211.437z"/><path fill="#0A0909" d="M294.55,211.437c-0.232,0-0.42-0.188-0.42-0.421V41.795c0-0.232,0.188-0.421,0.42-0.421
				s0.42,0.188,0.42,0.421v169.221C294.971,211.249,294.783,211.437,294.55,211.437z"/><path fill="#0A0909" d="M409.119,211.437c-0.232,0-0.42-0.188-0.42-0.421V41.795c0-0.232,0.188-0.421,0.42-0.421
				s0.42,0.188,0.42,0.421v169.221C409.539,211.249,409.351,211.437,409.119,211.437z"/><rect width="519.682" height="2.738" x="30.79" y="356.025" fill="#0A0909"/><g><polygon fill="#FC7F61" points="500.372 315.351 503.793 333.244 523.643 331.651 523.138 313.566"/><path fill="#6596FA" d="M523.542,330.382l2.061,25.928h-44.05c0,0,1.47-8.041,11.947-11.074
				c10.476-3.033,9.951-13.779,9.951-13.779L523.542,330.382z"/><path fill="#FEB91E" d="M481.95,171.407c1.381,21.663,8.487,95.793,11.673,114.908s5.146,29.162,5.146,29.162l24.996-1.961
				l0.98,4.166l22.423-4.656c0,0-1.47-18.012-2.941-51.463c-1.47-33.451,0.047-66.809-4.755-93.322
				C539.473,168.241,503.483,158.321,481.95,171.407z"/><path fill="#FC7F61" d="M525.58,317.509l2.229,16.47l19.36-1.838c0,0-0.458-10.995-0.964-18.914L525.58,317.509z"/><path fill="#6596FA" d="M547.132,331.264l2.611,27.067h-44.019c0,0,0.242-7.256,8.639-9.282
				c15.806-3.814,13.234-16.651,13.234-16.651L547.132,331.264z"/><polygon fill="#0A0909" points="525.58 317.509 546.301 314.775 546.205 313.226"/><polygon fill="#0A0909" points="500.372 315.351 523.195 315.602 523.138 313.566"/><path fill="#0A0909" d="M523.194,311.352c-0.133,0-0.252-0.094-0.28-0.229c-2.586-12.846-18.417-113.199-18.576-114.211
					c-0.025-0.156,0.082-0.303,0.238-0.327c0.154-0.033,0.302,0.081,0.327,0.237c0.16,1.013,15.989,101.354,18.572,114.188
					c0.031,0.155-0.069,0.306-0.224,0.337C523.232,311.35,523.213,311.352,523.194,311.352z"/><path fill="#0A0909" d="M506.16,206.894c-0.001,0-0.002,0-0.003,0c-6.009-0.063-7.604-8.396-7.669-8.75
					c-0.028-0.155,0.074-0.305,0.229-0.333c0.155-0.027,0.304,0.074,0.333,0.229c0.015,0.082,1.575,8.224,7.112,8.281
					c0.158,0.002,0.285,0.131,0.283,0.289C506.444,206.768,506.317,206.894,506.16,206.894z"/><path fill="#0A0909" d="M523.766,313.802c-0.127,0-0.243-0.085-0.276-0.214c-0.041-0.152,0.051-0.309,0.204-0.349l9.313-2.45
					c0.156-0.044,0.309,0.052,0.349,0.204c0.041,0.152-0.051,0.309-0.204,0.349l-9.313,2.45
					C523.814,313.799,523.79,313.802,523.766,313.802z"/><path fill="#0A0909" d="M535.94,310.617c-0.127,0-0.243-0.086-0.277-0.214c-0.04-0.153,0.052-0.31,0.205-0.349l10.821-2.807
					c0.157-0.041,0.309,0.053,0.349,0.204c0.04,0.153-0.052,0.31-0.205,0.349l-10.821,2.807
					C535.988,310.614,535.964,310.617,535.94,310.617z"/><path fill="#0A0909" d="M497.804,310.617c-0.144,0-0.267-0.108-0.284-0.254c-0.018-0.157,0.095-0.299,0.252-0.316l24.729-2.807
					c0.158-0.011,0.298,0.096,0.316,0.252c0.018,0.157-0.095,0.299-0.252,0.316l-24.729,2.807
					C497.826,310.616,497.815,310.617,497.804,310.617z"/><path fill="#0A0909" d="M536.375,307.667c-0.074,0-0.137-0.057-0.143-0.132c-0.076-1.015-7.656-101.824-13.838-133.439
					c-0.015-0.077,0.035-0.152,0.113-0.168c0.084-0.017,0.153,0.036,0.167,0.113c6.186,31.632,13.768,132.458,13.843,133.473
					c0.006,0.079-0.053,0.147-0.132,0.153C536.381,307.667,536.378,307.667,536.375,307.667z"/><path fill="#FFF" d="M518.294,347.775c2.592,2.286,7.371-0.563,10.587-5.25c3.216-4.687,3.033-9.675,2.389-12.143
				c-0.643-2.468-4.023-0.554-4.023-0.554s0.945,5.207-0.985,9.94C524.1,345.071,518.294,347.775,518.294,347.775z"/><path fill="#FFF" d="M493.501,345.236c2.573,1.746,5.728,1.516,10.078-2.941c4.35-4.457,4.442-12.498,3.844-14.382
				c-0.597-1.884-4.703-0.281-4.703-0.281s1.122,6.012-0.088,8.991C500.372,342.188,496.962,343.996,493.501,345.236z"/><polygon fill="#FFF" points="505.723 358.332 549.742 358.332 549.587 356.725 505.822 357.529"/><polygon fill="#FFF" points="481.554 356.31 506.118 356.31 506.525 355.216 481.776 355.496"/><path fill="#0A0909" d="M525.604,348.111c-0.035,0-0.07-0.007-0.104-0.02l-4.529-1.77c-0.147-0.058-0.22-0.224-0.162-0.371
					c0.058-0.146,0.224-0.216,0.37-0.162l4.529,1.77c0.147,0.058,0.22,0.224,0.162,0.371
					C525.826,348.042,525.718,348.111,525.604,348.111z"/><path fill="#0A0909" d="M528.483,345.783c-0.02,0-0.041-0.002-0.061-0.007l-5.388-1.159c-0.154-0.033-0.252-0.186-0.219-0.34
					c0.034-0.153,0.188-0.254,0.339-0.219l5.388,1.159c0.154,0.033,0.252,0.186,0.219,0.34
					C528.733,345.691,528.615,345.783,528.483,345.783z"/><path fill="#0A0909" d="M531.056,342.719c-0.004,0-0.009,0-0.014-0.001l-6.083-0.307c-0.158-0.008-0.279-0.142-0.271-0.3
					c0.008-0.157,0.121-0.295,0.3-0.271l6.083,0.307c0.158,0.008,0.279,0.142,0.271,0.3
					C531.334,342.6,531.208,342.719,531.056,342.719z"/><path fill="#0A0909" d="M527.433,340.071c-0.307,0-0.509-0.13-0.635-0.259c-0.458-0.471-0.436-1.551-0.269-2.604
					c-0.652,1.114-1.474,2.199-2.206,2.199c-0.004,0-0.009,0-0.014,0c-0.403-0.008-0.717-0.295-0.933-0.853
					c-0.251-0.649-0.221-1.263,0.09-1.821c0.873-1.574,3.708-2.144,3.874-2.176c0.035-0.007,0.073-0.007,0.11-0.001l7.159-0.005
					c0.158,0,0.286,0.128,0.286,0.286s-0.128,0.286-0.286,0.286h-6.767c0.057,0.023,0.107,0.065,0.14,0.124
					c0.057,0.102,1.393,2.509,0.827,3.895c-0.178,0.436-0.513,0.729-0.997,0.869C527.671,340.053,527.545,340.071,527.433,340.071z
					 M527.488,335.537c-0.416,1.511-0.723,3.423-0.281,3.877c0.037,0.037,0.135,0.139,0.445,0.05
					c0.312-0.091,0.517-0.267,0.627-0.536C528.662,337.991,527.842,336.171,527.488,335.537z M526.899,335.251
					c-0.813,0.229-2.389,0.779-2.933,1.761c-0.227,0.41-0.245,0.848-0.056,1.338c0.085,0.22,0.226,0.483,0.41,0.486
					c0.002,0,0.004,0,0.006,0C524.973,338.835,526.137,336.887,526.899,335.251z M527.607,335.125
					c-0.001,0.003-0.001,0.005-0.002,0.008c0.006-0.003,0.012-0.006,0.018-0.008H527.607z"/><path fill="#0A0909" d="M501.22,346.089c-0.033,0-0.067-0.006-0.1-0.019l-4.854-1.812c-0.148-0.055-0.223-0.22-0.168-0.367
					c0.055-0.148,0.22-0.225,0.368-0.168l4.854,1.812c0.148,0.055,0.223,0.22,0.168,0.367
					C501.445,346.018,501.336,346.089,501.22,346.089z"/><path fill="#0A0909" d="M504.529,343.632c-0.021,0-0.042-0.003-0.063-0.007l-5.387-1.22c-0.154-0.035-0.25-0.188-0.216-0.343
					s0.189-0.245,0.342-0.216l5.387,1.22c0.154,0.035,0.25,0.188,0.216,0.343C504.777,343.543,504.659,343.632,504.529,343.632z"/><path fill="#0A0909" d="M507.408,340.514c-0.007,0-0.014,0-0.02-0.001l-6.425-0.442c-0.158-0.011-0.276-0.147-0.266-0.305
					c0.011-0.158,0.156-0.284,0.305-0.266l6.425,0.442c0.158,0.011,0.276,0.147,0.266,0.305
					C507.683,340.399,507.557,340.514,507.408,340.514z"/><path fill="#0A0909" d="M497.898,340.225c-0.42,0-0.807-0.152-1.153-0.456c-0.534-0.468-0.576-0.965-0.517-1.3
					c0.285-1.606,3.581-3.301,5.545-4.177c-1.777-0.007-4.415-0.164-4.988-1.007c-0.11-0.161-0.208-0.425-0.054-0.771
					c0.122-0.274,0.341-0.467,0.653-0.572c1.566-0.534,5.279,1.391,5.951,1.75h7.197c0.158,0,0.286,0.128,0.286,0.286
					s-0.128,0.286-0.286,0.286h-7.094c-0.48,0.932-2.93,5.479-5.175,5.923C498.139,340.212,498.018,340.225,497.898,340.225z
					 M502.641,334.541c-2.032,0.862-5.604,2.645-5.849,4.028c-0.05,0.284,0.055,0.528,0.331,0.771
					c0.308,0.27,0.643,0.361,1.03,0.288C499.849,339.293,501.836,336,502.641,334.541z M498.043,332.418
					c-0.181,0-0.341,0.021-0.474,0.066c-0.159,0.054-0.259,0.138-0.315,0.264c-0.052,0.117-0.025,0.173,0.004,0.216
					c0.379,0.558,2.78,0.75,4.853,0.756C500.868,333.13,499.103,332.418,498.043,332.418z"/><polygon fill="#1036BF" fill-rule="evenodd" points="442.031 77.117 449.593 119.051 479.143 116.626 473.742 73.298" clip-rule="evenodd"/><path fill="#0A0909" fill-rule="evenodd" d="M499.743,82.099c-5.767,2.313-5.413,9.381-3.136,13.289
				c0,0-1.427-5.776,0.227-7.649c0,0-1.81,11.576,10.514,14.693c12.322,3.118,27.106,26.39,27.106,26.39s8.876-9.661,6.639-18.875
				c-2.236-9.215-12.727-12.54-12.727-12.54s7.24-0.556,13.827,10.42c0,0-1.477-5.68-7.702-9.813
				c-6.225-4.134-12.382-5.176-12.382-5.176s-3.354-9.554-10.493-11.903C504.474,78.585,503.614,80.546,499.743,82.099z" clip-rule="evenodd"/><path fill="#FB7E60" fill-rule="evenodd" d="M460.816,130.61c-2.811,1.486-10.426-17.418-10.62-20.253
				c-0.194-2.834,1.022-2.136,3.195-1.823c2.171,0.313,3.279-1.658,3.303-3.452c0.026-1.793,0.241-9.845-0.923-9.418
				c-1.164,0.429-6.325,1.946-8.887,1.709c-2.562-0.235-3.498-1.073-4.984,4.788c-1.487,5.863-2.741,12.66-0.541,24.571
				c2.199,11.91,14.312,27.935,22.87,28.731c8.558,0.795,13.123-7.609,15.238-12.401C479.466,143.063,467.66,126.993,460.816,130.61
				z" clip-rule="evenodd"/><path fill="#464D7B" fill-rule="evenodd" d="M518.351,102.889c4.407,1.577,18.224,3.892,28.518,13.713
				c10.295,9.821,17.589,34.233,19.295,39.497c0,0-7.45-4.135-13.919-4.312c-6.467-0.177-11.313,2.166-11.313,2.166l1.938,4.967
				l-5.675,16.564c0,0-10.721-5.921-24.749-4.043c-23.109,5.296-35.521,6.764-35.521,6.764s6.186-21.482,9.094-32.842
				c0,0-7.269,3.543-11.427,6.533c0,0-1.67-8.543-13.954-21.426c0,0,7.873-7.168,24.541-15.707
				c16.668-8.54,21.969-8.628,21.969-8.628S513.942,101.312,518.351,102.889z" clip-rule="evenodd"/><path fill="#0A0909" fill-rule="evenodd" d="M540.794,153.967c-0.964-2.47-3.789-9.068-3.789-9.068
				l2.014,13.492c0,0,2.267-0.031,3.322-0.133C542.34,158.258,541.759,156.438,540.794,153.967z" clip-rule="evenodd"/><path fill="#0A0909" fill-rule="evenodd" d="M486.019,145.359c2.234-1.17,4.957-2.452,4.957-2.452
				s-3.787,2.392-5.609,5.125L486.019,145.359z" clip-rule="evenodd"/><path fill="#0A0909" fill-rule="evenodd" d="M550.904,151.614c5.106,0.879,12.5,3.888,14.762,6.028
				c0,0-0.323-1.326-0.55-2.063c0,0-2.735-1.915-7.461-3.129C552.928,151.237,550.904,151.614,550.904,151.614z" clip-rule="evenodd"/><path fill="#FFF" d="M549.479,133.116c-2.263,0-4.516-0.494-5.886-2.092c-0.457-0.531-0.807-1.043-1.067-1.526
					c-0.304,0.143-0.626,0.253-0.961,0.323c-0.938,0.192-2.311,0.14-3.524-1.246c-1.252-1.428-2.267-3.469-2.882-5.365
					c-0.004,0.002-0.009,0.004-0.014,0.006c-0.699,0.304-1.848,0.34-3.343-1.211c-4.097-4.249-3.155-6.632-3.112-6.731
					c0.022-0.052,0.083-0.078,0.136-0.055c0.053,0.022,0.078,0.083,0.056,0.136c-0.01,0.023-0.917,2.37,3.071,6.506
					c1.118,1.16,2.194,1.563,3.11,1.164c0.011-0.005,0.022-0.01,0.033-0.015c-0.617-1.983-0.784-3.778-0.311-4.502
					c0.156-0.239,0.46-0.487,1.024-0.311c0.638,0.202,1.029,0.829,1.075,1.72c0.06,1.149-0.496,2.603-1.532,3.194
					c0.612,1.887,1.622,3.931,2.844,5.327c1.148,1.31,2.443,1.366,3.325,1.179c0.316-0.066,0.62-0.17,0.907-0.303
					c-0.959-1.914-0.521-3.375,0.172-3.994c0.629-0.561,1.463-0.496,2.075,0.163c0.354,0.381,0.442,0.923,0.25,1.528
					c-0.266,0.838-1.103,1.814-2.209,2.393c0.251,0.47,0.59,0.968,1.034,1.485c3.424,3.991,12.918,0.767,13.014,0.734
					c0.053-0.019,0.114,0.011,0.133,0.064c0.019,0.055-0.01,0.114-0.064,0.133C556.592,131.904,553.023,133.116,549.479,133.116z
					 M543.544,125.147c-0.28,0-0.558,0.108-0.804,0.328c-0.617,0.551-1.013,1.936-0.118,3.744c1.056-0.549,1.853-1.477,2.106-2.271
					c0.119-0.376,0.181-0.91-0.204-1.323C544.229,125.308,543.885,125.147,543.544,125.147z M535.45,118.344
					c-0.208,0-0.371,0.092-0.491,0.277c-0.438,0.67-0.264,2.381,0.329,4.286c0.941-0.564,1.443-1.91,1.388-2.98
					c-0.041-0.799-0.38-1.357-0.93-1.531C535.639,118.362,535.541,118.344,535.45,118.344z"/><path fill="#FFF" d="M474.809,140.574c-0.03,0-0.06-0.014-0.081-0.038c-0.037-0.045-0.03-0.11,0.015-0.146
					c0.836-0.687,1.023-1.512,0.975-2.211c-0.938,0.142-1.732-0.017-2.318-0.343c-0.954-0.532-1.385-1.495-1.098-2.452
					c0.175-0.582,0.543-0.716,0.822-0.726c0.011,0,0.022,0,0.034,0c0.86,0,2.033,1.126,2.528,2.437
					c0.087,0.23,0.173,0.521,0.218,0.844c1.401-0.272,3.123-1.229,4.957-3.294c1.88-2.116,1.816-3.874,1.371-5.033
					c-1.747,1.529-3.175,1.013-3.778,0.659c-1.208-0.707-1.852-2.264-1.377-3.33c0.168-0.379,0.565-0.589,1.116-0.59
					c0.002,0,0.004,0,0.006,0c1.339,0,3.294,1.164,4.109,2.907c0.289-0.278,0.587-0.615,0.891-1.023
					c3.509-4.696,0.458-12.426,0.427-12.503c-0.021-0.054,0.004-0.114,0.058-0.136c0.051-0.021,0.114,0.005,0.136,0.058
					c0.032,0.079,3.125,7.917-0.453,12.706c-0.331,0.442-0.655,0.806-0.969,1.102c0.494,1.215,0.61,3.082-1.379,5.322
					c-1.872,2.107-3.641,3.083-5.09,3.36c0.058,0.757-0.137,1.656-1.051,2.406C474.856,140.566,474.832,140.574,474.809,140.574z
					 M473.159,134.866c-0.01,0-0.019,0-0.028,0c-0.306,0.011-0.519,0.205-0.63,0.578c-0.258,0.859,0.135,1.727,1,2.21
					c0.553,0.309,1.304,0.453,2.196,0.32c-0.042-0.31-0.124-0.587-0.207-0.806C475.031,135.952,473.928,134.866,473.159,134.866z
					 M478.197,126.558c-0.002,0-0.004,0-0.006,0c-0.328,0.001-0.755,0.082-0.926,0.466c-0.426,0.959,0.19,2.421,1.292,3.066
					c0.565,0.331,1.916,0.812,3.587-0.684c-0.001-0.004-0.003-0.008-0.005-0.011C481.375,127.697,479.485,126.558,478.197,126.558z"/><path fill="#FFF" d="M513.561,149.623c-0.051,0-0.095-0.037-0.103-0.089c-0.008-0.054-0.853-5.4-5.427-6.631
					c-1.921-0.514-3.688,0.137-4.977,1.147c0.242,0.273,0.419,0.602,0.529,0.979c0.405,1.403-0.251,3.099-1.108,3.676
					c-0.429,0.289-0.876,0.282-1.26-0.02c-0.643-0.507-0.685-1.491-0.112-2.634c0.339-0.677,0.91-1.403,1.647-2.021
					c-0.433-0.407-1.113-0.72-2.178-0.752c-0.058-0.002-0.103-0.05-0.101-0.107c0.001-0.058,0.052-0.113,0.107-0.102
					c1,0.031,1.794,0.318,2.333,0.832c1.336-1.055,3.175-1.734,5.174-1.2c4.708,1.267,5.571,6.746,5.58,6.801
					c0.008,0.058-0.031,0.11-0.088,0.118C513.571,149.622,513.566,149.623,513.561,149.623z M502.895,144.18
					c-0.719,0.599-1.275,1.306-1.605,1.965c-0.525,1.047-0.505,1.936,0.055,2.376c0.392,0.31,0.769,0.178,1.014,0.011
					c0.782-0.526,1.4-2.146,1.025-3.445C503.297,144.789,503.148,144.467,502.895,144.18z"/><path fill="#FB7E60" fill-rule="evenodd" d="M500.221,84.908c-0.341,4.743,0.699,10.871,4.261,12.238
				c5.727,2.2,2.549,7.642,2.549,7.642s5.268,17.774,10.65-2.607l-4.563-6.236c0,0,3.913-1.188,2.359-4.265
				c-1.549-3.062-4.713-0.392-4.713-0.392s-3.148-0.234-5.991-2.306C501.931,86.911,500.221,84.908,500.221,84.908z" clip-rule="evenodd"/><path fill="#0A0909" fill-rule="evenodd" d="M504.869,97.314c2.031,0.845,4.137,0.86,4.137,0.86
				s-1.361,1.613-2.344,1.568C505.68,99.697,502.838,96.469,504.869,97.314z" clip-rule="evenodd"/><path fill="#0A0909" d="M512.307,95.108c-0.172,0-0.324-0.123-0.355-0.299c-0.576-3.255,1.759-4.018,1.783-4.025
					c0.192-0.058,0.394,0.049,0.452,0.239c0.059,0.189-0.047,0.392-0.236,0.451c-0.075,0.024-1.748,0.604-1.287,3.209
					c0.035,0.197-0.096,0.385-0.293,0.419C512.349,95.106,512.328,95.108,512.307,95.108z"/><path fill="#0A0909" d="M514.552,94.086c-0.07,0-0.141-0.021-0.203-0.063c-0.325-0.222-1.303-0.774-1.913-0.708
					c-0.202,0.027-0.378-0.117-0.402-0.315c-0.023-0.198,0.118-0.378,0.316-0.401c0.985-0.121,2.265,0.73,2.407,0.827
					c0.165,0.113,0.207,0.338,0.094,0.503C514.781,94.032,514.668,94.086,514.552,94.086z"/><circle cx="502.962" cy="89.858" r=".445" fill="#0A0909" fill-rule="evenodd" clip-rule="evenodd" transform="rotate(-11.725 503.005 89.863)"/><path fill="#0A0909" d="M503.968,95.068c-0.189,0-0.348-0.146-0.36-0.338c-0.013-0.199,0.139-0.371,0.338-0.384
					c1.015-0.065,1.696-1.12,1.703-1.131c0.106-0.168,0.33-0.222,0.499-0.111c0.168,0.106,0.218,0.33,0.111,0.498
					c-0.036,0.057-0.889,1.377-2.267,1.465C503.983,95.068,503.976,95.068,503.968,95.068z"/><path fill="#FFF" fill-rule="evenodd" d="M518.319,102.865l-0.638-0.683c0,0-1.021,3.555-2.238,6.028
				c-1.218,2.471-3.824,3.74-5.62,1.895c-1.796-1.847-2.792-5.316-2.792-5.316l0.123,1.342c0,0,0.744,4.212,2.977,5.547
				c2.235,1.335,5.107-0.425,6.39-3.337C517.803,105.427,518.319,102.865,518.319,102.865z" clip-rule="evenodd"/><path fill="#FB7E60" fill-rule="evenodd" d="M443.268,98.294c0.067-0.108,2.38-7.858,2.38-7.858
				s0.717-0.131,1.481,1.288c0.764,1.418,0.178,6.363,0.178,6.363L443.268,98.294z" clip-rule="evenodd"/><polygon fill="#464D7B" fill-rule="evenodd" points="449.66 75.277 450.51 79.847 464.598 77.888 463.884 73.298" clip-rule="evenodd"/><path fill="#D7E1F2" fill-rule="evenodd" d="M456.522,121.004l-17.246,13.846
				c0,0,7.166,19.514,19.432,23.542c12.267,4.027,23.242-7.51,23.242-7.51s-5.024,23.926-6.846,34.492
				c-1.822,10.566-6.923,23.805-6.923,23.805l30.588,1.457c0,0,8.685-58.661,10.151-73.418c1.466-14.756-1.889-32.429-1.889-32.429
				s-28.162,9.394-35.54,14.262c-7.378,4.868-9.055,7.51-10.904,7.51C458.738,126.56,456.522,121.004,456.522,121.004z" clip-rule="evenodd"/><rect width="5.235" height="26.135" x="502.235" y="143.378" fill="#0A0909" fill-rule="evenodd" clip-rule="evenodd" transform="rotate(44.911 504.872 156.454)"/><polygon fill-rule="evenodd" points="493.005 168.33 493.773 163.852 497.48 167.548" clip-rule="evenodd"/><polygon fill="#FC2222" fill-rule="evenodd" points="492.914 169.419 491.575 168.716 493.222 167.064 494.246 168.084" clip-rule="evenodd"/><polygon fill="#FC2222" fill-rule="evenodd" points="506.255 151.332 511.62 153.364 503.186 161.824 497.679 159.935" clip-rule="evenodd"/><path fill="#FB7E60" fill-rule="evenodd" d="M540.787,153.928c0,0,10-6.203,24.3,1.591
				c0,0,4.511,13.415-3.205,19.956c-7.716,6.543-18.651,3.164-27.378-0.894c-8.728-4.059-15.116-7.494-21.227-8.862
				c-6.11-1.368-8.952,0.728-9.757-1.707c-0.805-2.434-0.401-3.879-2.219-4.706c-1.819-0.827-6.746-0.961-5.293-1.871
				c1.453-0.912,11.789,0.707,12.404-0.472c0.615-1.179,0.459-1.055,2.482-2.87c0,0-0.321,1.049,3.028,2.494
				c3.347,1.444,21.506,2.191,28.4,1.669L540.787,153.928z" clip-rule="evenodd"/><path fill="#D7E1F2" fill-rule="evenodd" d="M518.319,102.865l7.552,51.736h-3.776l-3.465,16.477l6.33,2.99
				l0.911,35.839l33.156-2.551c0,0-3.643-13.846-4.372-18.764c-0.729-4.919-1.457-7.105-1.457-7.105s9.638-0.993,13.199-7.419
				c3.561-6.426,3.561-12.447,1.01-22.736c-2.551-10.288-12.126-31.512-23.643-38.617
				C532.247,105.61,518.319,102.865,518.319,102.865z" clip-rule="evenodd"/><path d="M547.092,156.757c-5.512,0-20.516-1.836-21.25-1.926c-0.128-0.016-0.218-0.132-0.203-0.26
				c0.016-0.128,0.135-0.215,0.259-0.203c7.165,0.882,21.159,2.394,22.849,1.797c1.237-0.435-2.993-17.259-7.797-33.273
				c-0.037-0.123,0.033-0.252,0.156-0.289c0.125-0.039,0.253,0.032,0.29,0.156c0.024,0.081,2.485,8.296,4.647,16.499
				c4.427,16.796,3.328,17.182,2.858,17.347C548.6,156.711,547.965,156.757,547.092,156.757z"/><path d="M553.197,181.719c-0.02,0-0.04-0.002-0.059-0.007l-28.237-7.419c-0.125-0.033-0.199-0.16-0.166-0.285
				c0.032-0.125,0.16-0.199,0.284-0.166l28.237,7.419c0.125,0.033,0.199,0.16,0.166,0.285
				C553.395,181.651,553.301,181.719,553.197,181.719z"/><path d="M542.193,126.523c-0.035,0-0.07-0.007-0.103-0.023l-4.338-2.135c-0.115-0.057-0.163-0.196-0.106-0.312
				c0.057-0.116,0.197-0.165,0.312-0.106l4.338,2.135c0.115,0.057,0.163,0.196,0.106,0.312
				C542.362,126.476,542.279,126.523,542.193,126.523z"/><polygon fill-rule="evenodd" points="481.95 150.881 485.367 148.032 480.546 157.642" clip-rule="evenodd"/><path d="M487.99,189.202c-0.36,0-0.647-0.003-0.829-0.005c-0.716-0.01-7.026-0.12-7.863-0.99
				c-1.091-1.132-0.898-5.752-0.872-6.275c0.003-0.062,0.031-0.12,0.078-0.162c0.046-0.041,0.106-0.063,0.17-0.059l19.521,1.274
				c0.071,0.005,0.136,0.041,0.176,0.1s0.052,0.132,0.031,0.2c-0.043,0.144-1.081,3.535-2.496,4.927
				C495.003,189.1,490.158,189.202,487.99,189.202z M478.881,182.191c-0.054,1.517-0.011,4.9,0.752,5.693
				c0.353,0.365,3.113,0.787,7.535,0.847c4.384,0.068,7.842-0.29,8.413-0.852c1.105-1.087,2.007-3.606,2.287-4.449L478.881,182.191z
				"/><g><path d="M540.427,189.202c-0.361,0-0.647-0.003-0.829-0.005c-0.717-0.01-7.026-0.12-7.863-0.99
				c-1.091-1.132-0.898-5.752-0.873-6.275c0.003-0.062,0.031-0.12,0.078-0.162c0.046-0.041,0.106-0.063,0.17-0.059l19.521,1.274
				c0.071,0.005,0.136,0.041,0.176,0.1s0.052,0.132,0.031,0.2c-0.043,0.144-1.081,3.535-2.496,4.927
				C547.439,189.1,542.595,189.202,540.427,189.202z M531.317,182.191c-0.054,1.517-0.01,4.9,0.752,5.693
				c0.353,0.365,3.113,0.787,7.535,0.847c4.381,0.068,7.842-0.29,8.412-0.852c1.105-1.087,2.007-3.606,2.287-4.449L531.317,182.191z
				"/></g><g><path d="M508.163,144.038c-0.077,0-0.153-0.038-0.197-0.108l-10.683-16.972c-0.061-0.096-0.043-0.221,0.041-0.297l7.276-6.557
				l-4.586-3.655c-0.091-0.072-0.115-0.201-0.055-0.301l6.871-11.479c0.066-0.111,0.21-0.144,0.319-0.081
				c0.11,0.066,0.146,0.209,0.08,0.319l-6.767,11.305l4.642,3.699c0.054,0.042,0.085,0.106,0.088,0.175
				c0.002,0.068-0.026,0.134-0.077,0.18l-7.335,6.609l10.579,16.806c0.069,0.108,0.036,0.253-0.073,0.321
				C508.249,144.027,508.206,144.038,508.163,144.038z"/></g><g><path d="M524.039,142.28c-0.028,0-0.057-0.005-0.084-0.016c-0.12-0.047-0.179-0.182-0.132-0.302l7.754-19.899l-7.066-2.796
				c-0.072-0.028-0.125-0.09-0.142-0.165s0.004-0.153,0.056-0.21l3.938-4.269l-10.219-11.604c-0.085-0.097-0.076-0.244,0.021-0.329
				c0.096-0.086,0.243-0.075,0.329,0.021l10.357,11.763c0.079,0.09,0.077,0.225-0.004,0.313l-3.85,4.173l6.965,2.757
				c0.119,0.048,0.178,0.182,0.131,0.302l-7.838,20.115C524.22,142.224,524.132,142.28,524.039,142.28z"/></g></g><g><path fill="#0A0909" d="M56.346,357.342c-0.234,0-0.471-0.071-0.676-0.22c-0.515-0.374-0.63-1.095-0.257-1.61l52.148-71.945
				c0.374-0.514,1.095-0.631,1.61-0.257c0.515,0.374,0.63,1.095,0.257,1.61L57.28,356.866
				C57.055,357.176,56.703,357.342,56.346,357.342z"/><path fill="#0A0909" d="M217.41,357.761c-0.357,0-0.709-0.166-0.935-0.477l-52.148-71.944c-0.374-0.516-0.258-1.236,0.257-1.61
				c0.516-0.372,1.236-0.258,1.61,0.257l52.148,71.944c0.374,0.516,0.258,1.236-0.257,1.61
				C217.881,357.689,217.645,357.761,217.41,357.761z"/><path fill="#0A0909" d="M68.379,224.482l40.733,70.239c0.078,0.134,0.249,0.179,0.383,0.102l8.574-4.972
			c0.134-0.078,0.179-0.249,0.102-0.383l-40.733-70.239c-1.451-2.502-4.655-3.353-7.156-1.903l0,0
			C67.78,218.776,66.928,221.98,68.379,224.482z"/><path fill="#0A0909" d="M109.251,294.963l64.401-2.235c2.835-0.098,5.053-2.476,4.954-5.311l-0.007-0.201
			c-0.098-2.835-2.476-5.053-5.311-4.954l-64.401,2.235L109.251,294.963z"/><path fill="#1036BF" d="M56.725,176.173l17.092,29.473c-0.284,1.885,1.669,2.404,3.193,1.52l0,0
			c1.524-0.884,2.044-2.836,1.159-4.36l-17.092-29.473c-0.884-1.524-2.836-2.043-4.361-1.159l0,0
			C55.193,173.057,54.674,175.01,56.725,176.173z"/><path fill="#464D7B" d="M222.648,319.822l-0.934,21.156l33.101,1.66c0,0,0.549-5.219-7.36-9.354
				c-7.909-4.135-10.379-10.197-10.186-13.009L222.648,319.822z"/><path fill="#FFF" d="M254.815,342.638c0,0,0.009-0.41-0.007-0.581l-27.567-2.291l1.346,1.557L254.815,342.638z"/><path fill="#FEB91E" d="M151.694,224.279c-1.457,10.597-41.233,26.48-40.367,31.359c5.955,33.537,82.28,16.142,86.075,18.935
				c3.795,2.792,1.12,27.298,1.12,27.298l22.184,1.257l0.808-4.921l19.021,1.379c0,0,2.233-23.311-1.222-34.585
				c-3.454-11.274-13.63-22.765-48.15-25.274C156.645,237.217,151.694,224.279,151.694,224.279z"/><path fill="#FC7F61" d="M219.432,303.055c-0.582,5.861-4.255,23.119-4.255,23.119l-15.514-1.843c0,0,0.419-18.44,0.85-22.348
				L219.432,303.055z"/><path fill="#FC7F61" d="M239.03,299.476c-0.818,6.381-1.762,20.799-1.762,20.799l-14.621-0.454l-1.134-21.615L239.03,299.476z"/><path fill="#464D7B" d="M215.177,326.174c-0.417,4.126,1.082,8.062,6.671,10.434c5.588,2.372,7.083,4.405,8.121,7.819
				l-32.726-0.973l2.42-19.123L215.177,326.174z"/><path fill="#FFF" d="M222.776,337.017c-1.273,1.413-4.033,1.242-6.972-1.401c-2.939-2.642-4.253-9.26-3.597-11.105
				c0.656-1.844,3.223-0.477,3.065,1.213c-0.159,1.689-0.182,4.081,1.442,6.655C218.247,334.808,220.325,336.004,222.776,337.017z"/><path fill="#FFF" d="M248.594,333.921c-2.648,1.163-4.956,0.669-9.008-2.753c-4.052-3.421-5.941-8.676-5.908-11.004
				c0.033-2.328,3.736-2.023,3.736-2.023s-0.154,0.55-0.145,2.135c0.008,1.585,1.546,6.056,4.59,8.699
				C244.904,331.618,246.786,332.701,248.594,333.921z"/><polygon fill="#0A0909" points="219.432 303.055 200.332 304.431 200.514 301.983"/><polygon fill="#0A0909" points="239.03 299.476 221.647 300.728 221.515 298.207"/><path fill="#0A0909" d="M221.812,296.702c-0.004,0-0.009,0-0.014,0c-0.135-0.008-0.239-0.124-0.232-0.26
					c0.151-2.769,0.359-5.717,0.56-8.568c0.846-12.008,1.721-24.425-0.856-30.907c-3.154-7.935-18.949-15.058-19.108-15.129
					c-0.124-0.056-0.18-0.201-0.125-0.325c0.055-0.124,0.202-0.18,0.325-0.124c0.658,0.293,16.138,7.277,19.365,15.396
					c2.618,6.586,1.739,19.061,0.89,31.124c-0.201,2.849-0.408,5.795-0.56,8.561C222.05,296.6,221.941,296.702,221.812,296.702z"/><path fill="#0A0909" d="M221.515,298.453c-0.005,0-0.01,0-0.015-0.001l-13.138-0.783c-0.136-0.008-0.239-0.124-0.231-0.26
					c0.008-0.136,0.125-0.271,0.26-0.23l13.138,0.783c0.136,0.008,0.239,0.124,0.231,0.26
					C221.753,298.352,221.644,298.453,221.515,298.453z"/><path fill="#0A0909" d="M206.1,297.237c-0.01,0-0.019-0.001-0.029-0.002l-7.077-0.82c-0.135-0.016-0.232-0.138-0.216-0.272
					c0.016-0.135,0.141-0.229,0.273-0.216l7.077,0.82c0.135,0.016,0.232,0.138,0.216,0.272
					C206.329,297.144,206.223,297.237,206.1,297.237z"/><path fill="#0A0909" d="M240.986,293.394c-0.009,0-0.019-0.001-0.028-0.002l-18.832-2.139c-0.135-0.015-0.232-0.137-0.217-0.271
					c0.016-0.136,0.141-0.239,0.272-0.217l18.832,2.139c0.135,0.015,0.232,0.137,0.217,0.271
					C241.215,293.301,241.109,293.394,240.986,293.394z"/><path fill="#FFF" d="M229.97,344.427c0,0-0.039-0.331-0.396-1.162l-32.086-1.738l-0.244,1.927L229.97,344.427z"/><path fill="#0A0909" d="M216.955,337.524c-0.093,0-0.182-0.053-0.223-0.143c-0.057-0.123-0.003-0.27,0.12-0.327l3.264-1.513
					c0.123-0.055,0.27-0.003,0.327,0.12c0.057,0.123,0.003,0.27-0.12,0.327l-3.264,1.513
					C217.024,337.516,216.989,337.524,216.955,337.524z"/><path fill="#0A0909" d="M214.273,335.523c-0.109,0-0.208-0.072-0.238-0.183c-0.035-0.131,0.042-0.266,0.174-0.301l3.923-1.056
					c0.132-0.039,0.266,0.042,0.302,0.174c0.035,0.131-0.042,0.266-0.174,0.301l-3.923,1.056
					C214.316,335.52,214.294,335.523,214.273,335.523z"/><path fill="#0A0909" d="M212.808,333.091c-0.123,0-0.229-0.092-0.244-0.217c-0.016-0.135,0.08-0.258,0.215-0.273l3.906-0.466
					c0.137-0.016,0.257,0.08,0.273,0.215s-0.08,0.258-0.215,0.273l-3.906,0.466C212.827,333.09,212.817,333.091,212.808,333.091z"/><path fill="#0A0909" d="M215.214,327.844c-0.002,0-0.005,0-0.007,0l-4.119-0.126c-0.136-0.004-0.243-0.118-0.239-0.254
					c0.004-0.135,0.129-0.226,0.253-0.238l4.119,0.126c0.136,0.004,0.243,0.118,0.239,0.254
					C215.456,327.739,215.346,327.844,215.214,327.844z"/><path fill="#0A0909" d="M216.589,330.036c-1.007,0-2.488-1.817-2.786-2.197c-0.046-0.059-0.061-0.131-0.048-0.199
					c-0.027-0.079-0.013-0.17,0.045-0.238c0.106-0.126,2.624-3.075,4.512-2.085c0.426,0.224,0.487,0.485,0.463,0.666
					c-0.085,0.641-1.61,1.201-2.933,1.57c0.522,0.118,1.054,0.332,1.348,0.717c0.232,0.304,0.289,0.685,0.165,1.102
					c-0.139,0.467-0.415,0.612-0.623,0.651C216.685,330.031,216.638,330.036,216.589,330.036z M214.492,327.901
					c0.711,0.824,1.707,1.732,2.147,1.638c0.04-0.007,0.16-0.03,0.243-0.309c0.08-0.267,0.052-0.483-0.084-0.662
					C216.38,328.02,215.064,327.903,214.492,327.901z M217.461,325.604c-1.112,0-2.402,1.187-2.979,1.782
					c1.997-0.452,3.759-1.13,3.804-1.47c0.001-0.009-0.029-0.073-0.204-0.165C217.887,325.649,217.677,325.604,217.461,325.604z"/><path fill="#0A0909" d="M241.664,334.74c-0.088,0-0.174-0.048-0.218-0.133c-0.063-0.12-0.016-0.269,0.104-0.331l4.366-2.277
					c0.119-0.063,0.269-0.018,0.332,0.104c0.063,0.12,0.016,0.269-0.104,0.331l-4.366,2.277
					C241.741,334.731,241.702,334.74,241.664,334.74z"/><path fill="#0A0909" d="M238.853,332.979c-0.101,0-0.196-0.063-0.231-0.163c-0.046-0.128,0.021-0.269,0.148-0.314l5.283-1.892
					c0.128-0.045,0.27,0.021,0.314,0.148c0.046,0.128-0.021,0.269-0.148,0.314l-5.283,1.892
					C238.909,332.974,238.88,332.979,238.853,332.979z"/><path fill="#0A0909" d="M236.647,330.239c-0.12,0-0.225-0.088-0.243-0.21c-0.021-0.134,0.072-0.259,0.207-0.279l5.443-0.819
					c0.133-0.022,0.26,0.073,0.28,0.206c0.021,0.135-0.072,0.26-0.207,0.28l-5.443,0.819
					C236.671,330.238,236.659,330.239,236.647,330.239z"/><path fill="#0A0909" d="M239.904,327.652c-0.218,0-0.433-0.045-0.645-0.136c-1.491-0.64-2.32-3.419-2.517-4.158l-4.972-0.313
					c-0.135-0.008-0.238-0.125-0.23-0.261c0.009-0.135,0.119-0.244,0.261-0.229l5.045,0.316c0.671-0.611,5.093-4.452,7.961-2.212
					c0.535,0.418,0.739,0.825,0.607,1.212c-0.408,1.199-4.454,1.48-6.482,1.545c1.046,0.604,2.665,1.705,2.706,2.774
					c0.018,0.469-0.248,0.867-0.792,1.184C240.531,327.559,240.215,327.652,239.904,327.652z M237.263,323.39
					c0.245,0.858,1.002,3.164,2.191,3.674c0.368,0.158,0.744,0.121,1.147-0.115c0.379-0.221,0.559-0.462,0.548-0.739
					c-0.039-1.002-2.304-2.324-3.229-2.777L237.263,323.39z M237.995,322.944c0.002,0,0.004,0,0.006,0.001
					c2.708-0.019,6.67-0.413,6.949-1.232c0.075-0.218-0.247-0.51-0.444-0.664c-2.215-1.731-5.723,0.845-6.955,1.868L237.995,322.944
					z"/><path fill="#0A0909" d="M75.924,150.588c4.255-0.913,9.919,0.076,13.565,4.074c3.646,3.998,3.017,8.731,3.017,8.731
			s-0.553-4.367-3.925-7.729c0,0,3.212,5.029,0.004,11.003c-3.208,5.973-8.608,15.4-8.608,15.4s-3.908,3.191-2.305,10.241
			c1.603,7.05,11.953,20.911,11.953,20.911l-21.719-26.016c0,0-9.782-13.293-6.385-23.717
			C64.099,155.573,68.874,152.1,75.924,150.588z"/><path fill="#1036BF" d="M98.408,238.863c-7.81-12.573-22.276-34.431-23.272-43.373c-0.995-8.941,1.825-12.241,4.841-13.423
			c0,0,4.624,0.613,11.007-2.474c6.134,0.499,11.078,0.941,13.712,1.515c2.107,0.459,13.93,4.285,18.576,5.798
			c1.321,0.43,2.577,1.007,3.766,1.727c3.985,2.415,13.395,8.462,19.631,15.241c0,0,21.031,22.61,21.693,23.322
			c0.596,0.645,1.172,1.285,1.71,1.903c4.181,4.809,5.854,6.99,5.854,6.99s-10.72,2.136-27.724,9.033
			c-17.005,6.897-36.059,17.007-36.059,17.007S106.218,251.436,98.408,238.863z"/><path fill="#FC7F61" d="M72.049,174.891c-2.641-1.452-3.142-4.993-0.485-6.229c0.002-0.001,0.004-0.001,0.005-0.002
			c-2.243-3.266-1.923-7.765,0.976-10.673c3.274-3.284,8.591-3.293,11.875-0.018c0.508,0.506,0.928,1.065,1.279,1.654l0.005-0.004
			c0.03,0.053,0.06,0.111,0.09,0.165c0.061,0.108,0.123,0.216,0.18,0.327c2.32,4.254,4.279,10.64,2.223,12.527
			c-0.44,0.404-0.965,0.728-1.539,0.988l0.003,0.001c-0.324,2.245,4.323,5.968,4.323,5.968s-4.818,3.102-11.007,2.474
			c0,0-1.511-5.867-2.741-7.094C77.236,174.974,74.69,176.343,72.049,174.891z"/><path fill="#0A0909" d="M80.091,157.74c0,0,0.187,2.972-2.325,7.192c-2.511,4.22-7.089,5.896-7.089,5.896s3.182-2.037,4.785-4.557
			c0,0-3.335,3.096-5.425,3.919c-2.09,0.824-3.071-5.969-2.316-8.245c0.755-2.276,5.144-7.773,8.449-9.143
			c3.304-1.37,8.622,4.658,9.472,5.567c0.851,0.909,0.332,1.741,0.332,1.741S81.944,159.709,80.091,157.74z"/><path fill="#0A0909" d="M86.661,173.625c-2.419,0.974-5.089,0.432-5.089,0.432s3.286,2.187,6.149,2.224
			C87.721,176.281,86.961,175.324,86.661,173.625z"/><path fill="#0A0909" d="M129.96,200.011c0,0,0.415-0.117,0.388,0.063c-1.22,8.247-3.765,21.016-4.534,27.881
			c0,0-0.77-0.068-2.01-0.252c-1.012-0.15-1.892-0.327-1.892-0.327S123.496,214.147,129.96,200.011z"/><path fill="#0A0909" d="M121.912,227.376c-0.869,5.245,1.274,7.296,2.812,5.325c1.538-1.972,2.065-4.649,2.065-4.649
			L121.912,227.376z"/><path fill="#0A0909" d="M129.96,200.011c0.448-1.092,0.779-0.728,0.823,0.133L129.96,200.011z"/><g><path fill="#0A0909" d="M123.141,233.644c-0.031,0-0.063-0.005-0.095-0.017c-9.037-3.222-21.71-9.003-26.178-11.642
				c-0.134-0.079-0.179-0.253-0.1-0.387c0.079-0.134,0.252-0.179,0.387-0.1c4.447,2.626,17.072,8.384,26.081,11.597
				c0.147,0.052,0.224,0.214,0.171,0.36C123.366,233.573,123.257,233.644,123.141,233.644z"/></g><g><path fill="#0A0909" d="M99.354,226.726c-0.504,0-0.83-0.079-0.865-0.089c-0.151-0.039-0.242-0.192-0.203-0.343
				c0.038-0.151,0.191-0.243,0.343-0.204c0.088,0.022,2.191,0.522,4.167-1.448c0.109-0.109,0.289-0.11,0.399,0.001
				c0.11,0.11,0.11,0.289-0.001,0.399C101.769,226.464,100.268,226.726,99.354,226.726z"/></g><path fill="#FFF" d="M90.984,179.593c0,0,1.402,0.114,2.387,0.197c0,0-2.928,2.11-7.677,3.402
			c-4.75,1.292-7.349-0.226-7.349-0.226s0.884-0.576,1.633-0.899c0,0,1.711,0.224,5.393-0.587
			C88.08,180.884,90.984,179.593,90.984,179.593z"/><circle cx="81.75" cy="165.878" r=".488" fill="#0A0909" transform="rotate(-45.09 81.742 165.874)"/><circle cx="86.788" cy="164.265" r=".488" fill="#0A0909" transform="rotate(-45.09 86.78 164.261)"/><g><path fill="#FFF" d="M85.815,218.685c-0.059,0-0.113-0.037-0.133-0.096c-0.026-0.073,0.013-0.154,0.087-0.18
				c0.067-0.022,6.681-2.384,5.266-7.923c-0.175-0.685-0.43-1.278-0.739-1.79c-1.315,1.256-3.017,1.989-4.377,1.792
				c-0.917-0.127-1.575-0.651-1.901-1.518c-0.365-0.97-0.285-1.822,0.226-2.4c0.59-0.666,1.696-0.901,2.89-0.614
				c1.074,0.259,2.315,0.986,3.211,2.294c0.205-0.216,0.398-0.445,0.577-0.687c0.799-1.084,1.943-3.32,0.629-6.135
				c-0.304-0.649-0.637-1.231-0.989-1.748c-0.615,0.306-1.345,0.497-2.133,0.542c-1.612,0.087-2.979-0.486-3.561-1.507
				c-0.419-0.735-0.488-1.399-0.195-1.872c0.27-0.433,0.82-0.652,1.514-0.615c1.214,0.072,2.96,0.949,4.47,3.083
				c0.608-0.349,1.07-0.822,1.308-1.379c0.47-1.098,0.061-2.45-1.183-3.911c-4.692-5.511-15.688-2.536-15.799-2.507
				c-0.078,0.022-0.153-0.022-0.174-0.098s0.023-0.153,0.099-0.174c0.112-0.031,11.283-3.049,16.089,2.595
				c1.666,1.956,1.587,3.367,1.228,4.206c-0.259,0.605-0.756,1.121-1.408,1.499c0.348,0.519,0.681,1.104,0.99,1.767
				c1.376,2.946,0.179,5.288-0.658,6.421c-0.198,0.27-0.415,0.523-0.646,0.762c0.338,0.546,0.618,1.186,0.806,1.924
				c1.479,5.793-5.377,8.236-5.447,8.261C85.846,218.682,85.831,218.685,85.815,218.685z M86.149,206.118
				c-0.714,0-1.325,0.223-1.694,0.641c-0.445,0.503-0.504,1.233-0.173,2.113c0.288,0.764,0.867,1.226,1.675,1.338
				c1.297,0.177,2.926-0.532,4.185-1.755c-0.854-1.271-2.046-1.976-3.075-2.224C86.75,206.155,86.441,206.118,86.149,206.118z
				 M86.025,196.506c-0.517,0-0.918,0.174-1.112,0.487c-0.236,0.38-0.165,0.941,0.2,1.582c0.528,0.929,1.8,1.451,3.3,1.365
				c0.734-0.042,1.414-0.216,1.986-0.493c-1.382-1.923-3.013-2.864-4.229-2.937C86.12,196.508,86.072,196.506,86.025,196.506z"/></g><g><path fill="#FFF" d="M110.025,217.933c-0.072,0-0.134-0.056-0.141-0.128c-0.253-2.704,1.099-4.545,2.41-5.672
				c-0.274-0.326-0.517-0.679-0.719-1.051c-1.004-1.854-0.845-3.852,0.449-5.627c4.167-5.716,13.644-8.458,13.739-8.485
				c0.073-0.023,0.153,0.022,0.174,0.097c0.021,0.075-0.022,0.153-0.097,0.175c-0.094,0.027-9.479,2.744-13.588,8.38
				c-1.227,1.683-1.379,3.574-0.429,5.326c0.193,0.356,0.425,0.693,0.687,1.006c0.686-0.552,1.334-0.908,1.706-1.091
				c1.983-0.971,4.043-1.096,4.898-0.292c0.342,0.32,0.654,0.936,0.196,2.042c-0.451,1.091-1.336,1.725-2.494,1.785
				c-1.474,0.082-3.152-0.754-4.337-2.052c-1.261,1.083-2.557,2.849-2.315,5.433c0.007,0.077-0.05,0.146-0.127,0.153
				C110.034,217.932,110.029,217.933,110.025,217.933z M112.697,212.167c1.128,1.233,2.71,2.037,4.106,1.949
				c0.738-0.038,1.727-0.35,2.248-1.61c0.313-0.758,0.269-1.355-0.129-1.729c-0.761-0.715-2.729-0.567-4.581,0.34
				C113.983,211.292,113.357,211.635,112.697,212.167z"/></g><g><path fill="#FFF" d="M113.114,252.925c-0.95,0-1.764-0.321-2.213-0.896c-0.669-0.858-0.496-2.278,0.443-3.617
				c0.784-1.118,2.082-2.177,3.84-2.802c-0.11-0.141-0.228-0.285-0.352-0.431c-5.527-6.514-14.109-2.702-14.195-2.662
				c-0.072,0.028-0.155,0-0.187-0.07c-0.033-0.071-0.001-0.154,0.07-0.188c0.087-0.039,8.863-3.937,14.528,2.736
				c0.149,0.177,0.289,0.35,0.419,0.519c2.026-0.648,4.629-0.729,7.736,0.281c5.025,1.635,10.25,1.107,13.416-0.464
				c-1.68-1.924-2.176-3.852-1.962-5.309c0.17-1.158,0.811-2,1.672-2.196c0.956-0.22,2.001,0.389,2.861,1.665
				c0.979,1.452,0.98,2.905,0.003,4.201c-0.481,0.638-1.204,1.217-2.111,1.708c0.886,0.96,2.078,1.916,3.637,2.799
				c0.068,0.038,0.092,0.125,0.054,0.192c-0.039,0.068-0.125,0.093-0.192,0.054c-1.622-0.918-2.857-1.907-3.771-2.902
				c-3.235,1.627-8.571,2.187-13.694,0.521c-2.996-0.977-5.507-0.915-7.468-0.312c1.66,2.262,1.622,3.854,1.26,4.823
				c-0.531,1.422-1.954,2.118-3.109,2.296C113.565,252.908,113.336,252.925,113.114,252.925z M115.365,245.845
				c-1.742,0.6-3.021,1.633-3.789,2.729c-0.866,1.235-1.043,2.523-0.452,3.281c0.491,0.63,1.501,0.91,2.632,0.738
				c1.076-0.166,2.4-0.809,2.888-2.115C116.984,249.564,117.006,248.045,115.365,245.845z M136.718,238.066
				c-0.11,0-0.219,0.012-0.326,0.036c-0.745,0.17-1.303,0.922-1.456,1.962c-0.197,1.343,0.293,3.231,1.957,5.127
				c0.894-0.479,1.604-1.044,2.075-1.668c0.898-1.191,0.894-2.53-0.012-3.873C138.267,238.626,137.467,238.066,136.718,238.066z"/></g><path fill="#6696F8" d="M65.091,199.324l49.611,85.549c0.094,0.163,0.303,0.218,0.466,0.124l10.443-6.056
			c0.163-0.095,0.219-0.303,0.124-0.466l-49.611-85.549c-1.767-3.047-5.669-4.084-8.716-2.317l0,0
			C64.361,192.375,63.324,196.277,65.091,199.324z"/><path fill="#6696F8" d="M43.435,162.561l13.895,23.96c1.767,3.047,5.669,4.084,8.716,2.317l0,0
			c3.047-1.767,4.084-5.669,2.317-8.716l-13.895-23.96c-1.767-3.047-5.669-4.084-8.716-2.317l0,0
			C42.706,155.612,41.668,159.514,43.435,162.561z"/><path fill="#6696F8" d="M121.443,245.645l71.791-2.492c1.685-0.058,3.107-1.188,3.427-2.721l1.165-5.583
			c0.439-2.105-1.345-4.033-3.659-3.952l-71.791,2.492c-1.685,0.058-3.107,1.188-3.427,2.721l-1.165,5.583
			C117.345,243.798,119.129,245.725,121.443,245.645z"/><g><path fill="#0A0909" d="M118.564,284.292c-0.066,0-0.133-0.006-0.2-0.018c-0.627-0.11-1.046-0.707-0.937-1.335l6.588-37.622
				c0.11-0.627,0.705-1.043,1.334-0.937c0.627,0.11,1.046,0.707,0.937,1.335l-6.588,37.622
				C119.6,283.897,119.113,284.292,118.564,284.292z"/></g><g><path fill="#0A0909" d="M187.096,281.913c-0.035,0-0.071-0.002-0.106-0.005c-0.634-0.059-1.101-0.619-1.043-1.253l3.423-37.512
				c0.058-0.635,0.623-1.104,1.253-1.044c0.634,0.059,1.101,0.619,1.043,1.253l-3.423,37.512
				C188.188,281.462,187.686,281.913,187.096,281.913z"/></g><path fill="#6696F8" d="M114.872,285.168l78.439-2.722c3.452-0.12,6.154-3.016,6.034-6.468l-0.008-0.244
			c-0.12-3.452-3.016-6.154-6.468-6.034l-78.439,2.722L114.872,285.168z"/><path fill="#FC7F61" d="M129.96,200.011c0,0,22.396,10.623,37.551,12.582c15.155,1.959,35.501,8.571,39.184,11.841
			c3.682,3.27,2.969,12.325-1.902,15.306c-4.872,2.981-4.819,4.493-5.988,1.992c-1.168-2.501,4.098-9.68-7.508-10.646
			c-11.606-0.966-30.312,2.279-44.34,0.062c-14.029-2.217-21.144-3.194-21.144-3.194L129.96,200.011z"/><g><path fill="#0A0909" d="M84.873,171.121c-1.106,0.001-2.057-0.497-2.113-0.527c-0.138-0.073-0.189-0.244-0.117-0.382
				c0.073-0.136,0.244-0.188,0.382-0.116c0.016,0.008,1.679,0.874,2.976,0.206c0.952-0.489,1.13-0.887,1.119-0.998
				c-0.048-0.148,0.036-0.295,0.184-0.344c0.151-0.05,0.311,0.046,0.359,0.193c0.043,0.133,0.18,0.837-1.403,1.65
				C85.806,171.038,85.327,171.121,84.873,171.121z"/></g><g><rect width="4.441" height="289.209" x="207.142" y="41.237" fill="#0A0909" transform="rotate(-180 209.363 185.842)"/><rect width="53.561" height="2.868" x="175.921" y="46.223" fill="#0A0909" transform="rotate(-180 202.701 47.657)"/><rect width="71.594" height="5.06" x="173.229" y="330.446" fill="#0A0909" transform="rotate(-180 209.026 332.976)"/><rect width="3.364" height="21.253" x="241.459" y="335.506" fill="#0A0909" transform="rotate(-180 243.14 346.133)"/><rect width="3.364" height="21.253" x="173.229" y="335.506" fill="#0A0909" transform="rotate(180 174.911 346.133)"/></g><path fill="#D7E1F2" d="M183.327,74.101h-12.344c-1.968,0-3.563-1.595-3.563-3.563V48.325c0-1.968,1.595-3.563,3.563-3.563h12.344
			c1.968,0,3.563,1.595,3.563,3.563v22.213C186.89,72.506,185.294,74.101,183.327,74.101z"/><rect width="5.859" height="2.46" x="173.905" y="46.745" fill="#0A0909"/><path fill="#FC2222" d="M168.806,63.248c0,0,2.057-1.118,4.517-1.252c2.46-0.134,3.041,0.984,5.814,1.073
			c2.773,0.089,6.262-2.549,6.262-2.549s0.313,9.929-0.492,11.047c-0.805,1.118-14.088,1.252-15.251,0.313
			C168.493,70.941,168.806,63.248,168.806,63.248z"/><g><path fill="#FC2222" d="M149.68,209.372l-0.032-0.914c0.115-0.004,11.598-0.446,19.881-4.333
				c8.125-3.813,8.18-17.001,6.307-24.419c-1.905-7.546,0.748-105.364,0.862-109.524l0.914,0.025
				c-0.028,1.018-2.764,101.851-0.889,109.274c2.021,8.007,1.877,21.396-6.805,25.472
				C161.462,208.92,149.797,209.368,149.68,209.372z"/></g><path fill="#D7E1F2" d="M144.529,212.627l2.243-5.661c0,0,2.349,0.145,4.794,1.1c2.445,0.954,3.424,1.657,3.424,1.657
			l-2.201,5.171c0,0-4.622-0.537-6.44-1.401S144.529,212.627,144.529,212.627z"/></g><g><path fill="#0A0909" d="M289.984,175.207c0,0-2.016,2.302-5.734,1.323c-3.717-0.978-5.02-4.109-5.02-4.109
			s-2.613,0.031-2.758-2.87c-0.146-2.902,1.224-3.673,1.224-3.673s-3.033-2.457-2.446-4.218c0.587-1.761,2.739-1.663,2.739-1.663
			s-1.076-4.891,0.391-6.359c1.467-1.467,4.199,0,4.199,0s0.38-4.793,4.596-4.891c4.216-0.098,5.461,1.467,5.461,1.467
			s3.861-2.739,5.906-0.196s1.422,3.913,1.422,3.913s2.677,1.272,2.677,3.326c0,2.054-5.25,2.054-5.25,2.054L289.984,175.207z"/><path fill="#0A0909" d="M268.589,356.855c-0.234,0-0.471-0.071-0.676-0.22c-0.515-0.374-0.63-1.095-0.257-1.61l52.149-71.945
				c0.374-0.514,1.095-0.631,1.61-0.257s0.63,1.095,0.257,1.61l-52.149,71.945C269.298,356.689,268.946,356.855,268.589,356.855z"/><path fill="#0A0909" d="M429.654,357.274c-0.357,0-0.709-0.166-0.935-0.477l-52.148-71.944c-0.374-0.516-0.258-1.236,0.257-1.61
				c0.516-0.372,1.237-0.258,1.61,0.257l52.148,71.944c0.374,0.516,0.258,1.236-0.257,1.61
				C430.125,357.202,429.888,357.274,429.654,357.274z"/><path fill="#0A0909" d="M280.622,223.994l40.733,70.239c0.078,0.134,0.249,0.179,0.383,0.102l8.574-4.972
			c0.134-0.078,0.179-0.249,0.102-0.383l-40.733-70.239c-1.451-2.501-4.655-3.353-7.156-1.903l0,0
			C280.023,218.289,279.172,221.493,280.622,223.994z"/><path fill="#0A0909" d="M321.495,294.476l64.401-2.235c2.835-0.098,5.053-2.476,4.954-5.311l-0.007-0.201
			c-0.098-2.835-2.476-5.053-5.311-4.954l-64.401,2.235L321.495,294.476z"/><path fill="#1036BF" d="M268.969,175.686l17.092,29.473c-0.284,1.885,1.669,2.404,3.193,1.52l0,0
			c1.524-0.884,2.043-2.836,1.159-4.361l-17.092-29.473c-0.884-1.524-2.836-2.043-4.361-1.159l0,0
			C267.437,172.57,266.917,174.522,268.969,175.686z"/><path fill="#FEB91E" d="M434.892,319.335l-0.934,21.156l33.101,1.66c0,0,0.549-5.219-7.36-9.354
				c-7.909-4.135-10.379-10.197-10.186-13.009L434.892,319.335z"/><path fill="#FFF" d="M467.058,342.151c0,0,0.009-0.41-0.007-0.581l-27.567-2.291l1.346,1.557L467.058,342.151z"/><path fill="#464D7B" d="M363.937,223.791c-1.457,10.597-41.233,26.48-40.367,31.359c5.955,33.537,82.28,16.143,86.076,18.935
				c3.795,2.792,1.12,27.298,1.12,27.298l22.184,1.257l0.809-4.921l19.021,1.379c0,0,2.233-23.311-1.222-34.585
				c-3.454-11.274-13.63-22.765-48.15-25.274C368.888,236.73,363.937,223.791,363.937,223.791z"/><path fill="#FC7F61" d="M431.676,302.568c-0.582,5.861-4.255,23.119-4.255,23.119l-15.513-1.843c0,0,0.419-18.44,0.85-22.348
				L431.676,302.568z"/><path fill="#FC7F61" d="M451.274,298.989c-0.818,6.381-1.762,20.799-1.762,20.799l-14.621-0.454l-1.134-21.615L451.274,298.989z"/><path fill="#FEB91E" d="M427.421,325.687c-0.416,4.126,1.082,8.062,6.671,10.434c5.589,2.372,7.083,4.405,8.121,7.819
				l-32.726-0.974l2.42-19.123L427.421,325.687z"/><path fill="#FFF" d="M435.02,336.53c-1.272,1.413-4.033,1.242-6.972-1.401c-2.939-2.643-4.253-9.261-3.597-11.105
				c0.656-1.844,3.223-0.477,3.065,1.213c-0.159,1.689-0.182,4.081,1.442,6.655C430.49,334.32,432.569,335.517,435.02,336.53z"/><path fill="#FFF" d="M460.838,333.434c-2.648,1.163-4.956,0.669-9.008-2.753c-4.052-3.421-5.941-8.676-5.908-11.004
				c0.033-2.328,3.736-2.023,3.736-2.023s-0.153,0.55-0.145,2.135c0.008,1.585,1.546,6.056,4.59,8.699
				C457.147,331.131,459.03,332.214,460.838,333.434z"/><polygon fill="#0A0909" points="431.676 302.568 412.576 303.943 412.757 301.496"/><polygon fill="#0A0909" points="451.274 298.989 433.891 300.241 433.758 297.719"/><path fill="#0A0909" d="M434.055,296.214c-0.004,0-0.009,0-0.014,0c-0.135-0.008-0.239-0.124-0.232-0.26
					c0.151-2.77,0.359-5.719,0.56-8.57c0.846-12.007,1.721-24.424-0.855-30.905c-3.154-7.935-18.949-15.058-19.108-15.129
					c-0.124-0.056-0.18-0.201-0.125-0.325c0.055-0.124,0.202-0.181,0.325-0.124c0.658,0.293,16.138,7.277,19.365,15.396
					c2.618,6.586,1.739,19.06,0.889,31.122c-0.201,2.85-0.408,5.796-0.56,8.563C434.293,296.113,434.185,296.214,434.055,296.214z"/><path fill="#0A0909" d="M433.758,297.965c-0.005,0-0.01,0-0.015-0.001l-13.138-0.783c-0.136-0.008-0.239-0.124-0.231-0.26
					c0.008-0.136,0.12-0.267,0.26-0.23l13.138,0.783c0.136,0.008,0.239,0.124,0.231,0.26
					C433.996,297.865,433.888,297.965,433.758,297.965z"/><path fill="#0A0909" d="M418.343,296.75c-0.01,0-0.019-0.001-0.029-0.002l-7.077-0.821c-0.135-0.016-0.232-0.138-0.216-0.272
					c0.016-0.135,0.144-0.232,0.272-0.216l7.077,0.821c0.135,0.016,0.232,0.138,0.216,0.272
					C418.573,296.657,418.466,296.75,418.343,296.75z"/><path fill="#0A0909" d="M453.23,292.907c-0.009,0-0.019-0.001-0.028-0.002l-18.832-2.139c-0.135-0.015-0.232-0.137-0.217-0.271
					c0.016-0.136,0.139-0.239,0.272-0.217l18.832,2.139c0.135,0.015,0.232,0.137,0.217,0.271
					C453.459,292.814,453.353,292.907,453.23,292.907z"/><path fill="#FFF" d="M442.213,343.94c0,0-0.039-0.331-0.396-1.162l-32.086-1.738l-0.244,1.927L442.213,343.94z"/><path fill="#0A0909" d="M429.198,337.037c-0.093,0-0.182-0.053-0.223-0.143c-0.057-0.123-0.003-0.27,0.12-0.327l3.264-1.514
					c0.124-0.055,0.27-0.003,0.327,0.12c0.057,0.123,0.003,0.27-0.12,0.327l-3.264,1.514
					C429.268,337.029,429.233,337.037,429.198,337.037z"/><path fill="#0A0909" d="M426.517,335.036c-0.109,0-0.208-0.072-0.238-0.182c-0.035-0.132,0.042-0.267,0.174-0.302l3.923-1.057
					c0.133-0.037,0.266,0.042,0.302,0.173c0.035,0.132-0.042,0.267-0.174,0.302l-3.923,1.057
					C426.56,335.033,426.538,335.036,426.517,335.036z"/><path fill="#0A0909" d="M425.051,332.604c-0.123,0-0.229-0.092-0.244-0.217c-0.016-0.135,0.08-0.258,0.215-0.273l3.907-0.466
					c0.141-0.019,0.258,0.079,0.273,0.215c0.016,0.135-0.08,0.258-0.215,0.273l-3.907,0.466
					C425.07,332.603,425.061,332.604,425.051,332.604z"/><path fill="#0A0909" d="M427.458,327.357c-0.002,0-0.005,0-0.007,0l-4.119-0.126c-0.136-0.004-0.243-0.118-0.239-0.254
					c0.004-0.135,0.115-0.224,0.253-0.238l4.119,0.126c0.136,0.004,0.243,0.118,0.239,0.254
					C427.699,327.251,427.59,327.357,427.458,327.357z"/><path fill="#0A0909" d="M428.833,329.548c-1.007,0-2.488-1.817-2.786-2.197c-0.046-0.059-0.061-0.131-0.048-0.198
					c-0.027-0.079-0.014-0.17,0.044-0.239c0.106-0.125,2.627-3.073,4.512-2.085c0.426,0.224,0.487,0.485,0.463,0.666
					c-0.085,0.641-1.61,1.201-2.933,1.57c0.522,0.118,1.054,0.332,1.348,0.717c0.232,0.304,0.289,0.685,0.165,1.102
					c-0.139,0.467-0.415,0.612-0.623,0.651C428.929,329.543,428.881,329.548,428.833,329.548z M426.736,327.414
					c0.711,0.824,1.702,1.73,2.147,1.638c0.04-0.007,0.16-0.03,0.243-0.309c0.08-0.267,0.052-0.483-0.084-0.662
					C428.624,327.533,427.308,327.416,426.736,327.414z M429.722,325.123c-1.048,0-2.31,1.059-3.003,1.778
					c2-0.452,3.766-1.132,3.811-1.472c0.001-0.009-0.029-0.073-0.204-0.165C430.138,325.166,429.934,325.123,429.722,325.123z"/><path fill="#0A0909" d="M453.907,334.252c-0.088,0-0.174-0.048-0.218-0.132c-0.063-0.121-0.016-0.27,0.104-0.332l4.366-2.277
					c0.119-0.063,0.269-0.017,0.332,0.104c0.063,0.121,0.016,0.27-0.104,0.332l-4.366,2.277
					C453.985,334.244,453.946,334.252,453.907,334.252z"/><path fill="#0A0909" d="M451.097,332.492c-0.101,0-0.196-0.063-0.231-0.163c-0.046-0.128,0.021-0.269,0.148-0.314l5.283-1.892
					c0.129-0.046,0.269,0.021,0.314,0.148c0.046,0.128-0.021,0.269-0.148,0.314l-5.283,1.892
					C451.152,332.487,451.124,332.492,451.097,332.492z"/><path fill="#0A0909" d="M448.89,329.751c-0.12,0-0.225-0.088-0.243-0.209c-0.021-0.135,0.072-0.26,0.207-0.28l5.443-0.819
					c0.13-0.021,0.26,0.072,0.28,0.207c0.021,0.134-0.072,0.259-0.207,0.279l-5.443,0.819
					C448.915,329.751,448.902,329.751,448.89,329.751z"/><path fill="#0A0909" d="M452.148,327.165c-0.218,0-0.433-0.045-0.645-0.136c-1.491-0.64-2.32-3.417-2.517-4.157l-4.972-0.313
					c-0.135-0.008-0.238-0.125-0.23-0.261c0.009-0.135,0.119-0.265,0.261-0.229l5.045,0.317c0.667-0.608,5.094-4.449,7.962-2.214
					c0.535,0.418,0.739,0.826,0.607,1.212c-0.409,1.2-4.454,1.481-6.482,1.547c1.047,0.603,2.665,1.704,2.706,2.773
					c0.018,0.469-0.248,0.867-0.792,1.184C452.774,327.072,452.459,327.165,452.148,327.165z M449.506,322.904
					c0.245,0.859,1.002,3.163,2.191,3.673c0.368,0.158,0.744,0.121,1.147-0.115c0.379-0.221,0.559-0.462,0.548-0.739
					c-0.039-1.001-2.304-2.323-3.229-2.776L449.506,322.904z M450.239,322.458c0.002,0,0.004,0,0.007,0.001
					c2.708-0.02,6.669-0.414,6.948-1.233c0.075-0.219-0.247-0.511-0.444-0.665c-2.219-1.737-5.726,0.848-6.957,1.869
					L450.239,322.458z"/><path fill="#FEB91E" d="M310.651,238.376c-7.81-12.573-22.277-34.431-23.272-43.373c-0.995-8.941,1.825-12.241,4.841-13.423
			c0,0,4.624,0.613,11.007-2.474c6.134,0.499,11.078,0.941,13.712,1.515c2.107,0.459,13.93,4.285,18.576,5.798
			c1.321,0.43,2.577,1.007,3.766,1.727c3.985,2.415,13.395,8.462,19.631,15.241c0,0,21.031,22.61,21.693,23.322
			c0.596,0.645,1.172,1.285,1.71,1.903c4.181,4.809,5.854,6.99,5.854,6.99s-10.72,2.136-27.724,9.032
			c-17.005,6.897-36.059,17.007-36.059,17.007S318.461,250.949,310.651,238.376z"/><path fill="#FC7F61" d="M284.293,174.403c-2.641-1.452-3.142-4.993-0.485-6.229c0.002-0.001,0.004-0.001,0.005-0.002
			c-2.243-3.266-1.923-7.765,0.976-10.673c3.274-3.284,8.591-3.292,11.875-0.018c0.508,0.506,0.928,1.065,1.279,1.654l0.004-0.004
			c0.03,0.053,0.06,0.111,0.091,0.165c0.061,0.108,0.123,0.216,0.18,0.327c2.32,4.254,4.279,10.64,2.223,12.527
			c-0.44,0.404-0.965,0.728-1.539,0.988l0.003,0.001c-0.324,2.245,4.323,5.968,4.323,5.968s-4.818,3.101-11.007,2.474
			c0,0-1.511-5.867-2.741-7.094C289.48,174.486,286.934,175.855,284.293,174.403z"/><path fill="#0A0909" d="M298.905,173.138c-2.419,0.974-5.089,0.432-5.089,0.432s3.286,2.187,6.149,2.224
			C299.965,175.794,299.205,174.836,298.905,173.138z"/><path fill="#0A0909" d="M342.203,199.523c0,0,0.415-0.117,0.388,0.063c-1.22,8.247-3.764,21.016-4.534,27.881
			c0,0-0.77-0.068-2.01-0.252c-1.012-0.15-1.892-0.327-1.892-0.327S335.74,213.659,342.203,199.523z"/><path fill="#0A0909" d="M334.155,226.889c-0.869,5.245,1.274,7.296,2.812,5.325c1.538-1.971,2.065-4.649,2.065-4.649
			L334.155,226.889z"/><path fill="#0A0909" d="M342.203,199.523c0.448-1.092,0.779-0.728,0.823,0.133L342.203,199.523z"/><g><path fill="#0A0909" d="M335.384,233.157c-0.032,0-0.063-0.005-0.095-0.017c-9.037-3.223-21.71-9.004-26.178-11.642
				c-0.134-0.079-0.179-0.253-0.1-0.387s0.252-0.179,0.387-0.1c4.447,2.626,17.071,8.384,26.08,11.597
				c0.147,0.052,0.224,0.214,0.171,0.36C335.609,233.085,335.5,233.157,335.384,233.157z"/></g><g><path fill="#0A0909" d="M311.598,226.239c-0.504,0-0.83-0.079-0.865-0.089c-0.151-0.039-0.242-0.192-0.203-0.343
				c0.038-0.151,0.188-0.243,0.343-0.204c0.088,0.023,2.19,0.522,4.167-1.448c0.109-0.109,0.289-0.11,0.399,0.001
				c0.11,0.11,0.11,0.289-0.001,0.399C314.013,225.977,312.511,226.239,311.598,226.239z"/></g><path fill="#FFF" d="M303.228,179.106c0,0,1.402,0.113,2.387,0.197c0,0-2.928,2.11-7.677,3.402
			c-4.749,1.292-7.349-0.226-7.349-0.226s0.884-0.576,1.633-0.899c0,0,1.711,0.224,5.392-0.587
			C300.323,180.396,303.228,179.106,303.228,179.106z"/><circle cx="293.993" cy="165.391" r=".488" fill="#0A0909" transform="rotate(-45.09 294.01 165.396)"/><circle cx="299.031" cy="163.778" r=".488" fill="#0A0909" transform="rotate(-45.09 299.016 163.78)"/><path fill="#6696F8" d="M277.334,198.837l49.611,85.549c0.094,0.163,0.303,0.219,0.466,0.124l10.443-6.056
			c0.163-0.094,0.219-0.303,0.124-0.466l-49.611-85.549c-1.767-3.047-5.669-4.084-8.716-2.318l0,0
			C276.605,191.888,275.567,195.79,277.334,198.837z"/><path fill="#6696F8" d="M255.679,162.073l13.895,23.96c1.767,3.047,5.669,4.084,8.716,2.318l0,0
			c3.047-1.767,4.084-5.669,2.317-8.716l-13.895-23.96c-1.767-3.047-5.669-4.084-8.716-2.318l0,0
			C254.95,155.124,253.912,159.026,255.679,162.073z"/><path fill="#6696F8" d="M333.686,245.157l71.792-2.492c1.684-0.059,3.107-1.188,3.427-2.721l1.165-5.583
			c0.439-2.105-1.345-4.033-3.659-3.952l-71.792,2.492c-1.685,0.059-3.107,1.188-3.427,2.721l-1.165,5.583
			C329.588,243.31,331.372,245.238,333.686,245.157z"/><g><path fill="#0A0909" d="M330.808,283.804c-0.066,0-0.133-0.006-0.2-0.018c-0.627-0.11-1.046-0.707-0.937-1.335l6.587-37.622
				c0.11-0.627,0.709-1.044,1.334-0.937c0.627,0.11,1.046,0.707,0.937,1.335l-6.587,37.622
				C331.844,283.41,331.357,283.804,330.808,283.804z"/></g><g><path fill="#0A0909" d="M399.34,281.425c-0.035,0-0.071-0.002-0.106-0.005c-0.634-0.059-1.101-0.619-1.043-1.253l3.423-37.512
				c0.058-0.635,0.618-1.104,1.253-1.044c0.634,0.059,1.101,0.619,1.043,1.253l-3.423,37.512
				C400.432,280.975,399.929,281.425,399.34,281.425z"/></g><path fill="#6696F8" d="M327.115,284.681l78.439-2.722c3.453-0.12,6.154-3.016,6.034-6.468l-0.008-0.244
			c-0.12-3.452-3.016-6.154-6.468-6.034l-78.439,2.722L327.115,284.681z"/><path fill="#FC7F61" d="M342.203,199.523c0,0,22.396,10.623,37.551,12.582c15.155,1.959,35.501,8.571,39.184,11.841
			c3.682,3.27,2.969,12.325-1.902,15.306c-4.872,2.981-4.819,4.493-5.987,1.992c-1.168-2.501,4.098-9.68-7.508-10.646
			s-30.312,2.279-44.34,0.062c-14.029-2.217-21.144-3.194-21.144-3.194L342.203,199.523z"/><g><path fill="#0A0909" d="M297.117,170.633c-1.106,0.001-2.057-0.497-2.113-0.527c-0.138-0.073-0.189-0.244-0.117-0.382
				c0.073-0.136,0.243-0.189,0.382-0.116c0.016,0.008,1.679,0.873,2.976,0.206c0.952-0.489,1.13-0.887,1.119-0.998
				c-0.048-0.148,0.036-0.295,0.184-0.344c0.147-0.05,0.311,0.045,0.359,0.193c0.043,0.133,0.18,0.837-1.403,1.65
				C298.05,170.55,297.57,170.633,297.117,170.633z"/></g><g><rect width="4.441" height="288.284" x="419.386" y="41.759" fill="#0A0909" transform="rotate(-180 421.606 185.9)"/><rect width="53.561" height="2.858" x="388.164" y="46.729" fill="#0A0909" transform="rotate(-180 414.945 48.158)"/><rect width="71.594" height="5.044" x="385.473" y="330.043" fill="#0A0909" transform="rotate(180 421.27 332.565)"/><rect width="3.364" height="21.186" x="453.702" y="335.087" fill="#0A0909" transform="rotate(-180 455.384 345.68)"/><rect width="3.364" height="21.185" x="385.473" y="335.087" fill="#0A0909" transform="rotate(180 387.155 345.68)"/></g><path fill="#D7E1F2" d="M396.681,74.101h-12.344c-1.968,0-3.563-1.595-3.563-3.563V48.325c0-1.968,1.595-3.563,3.563-3.563h12.344
			c1.968,0,3.563,1.595,3.563,3.563v22.213C400.244,72.506,398.649,74.101,396.681,74.101z"/><rect width="5.859" height="2.46" x="387.259" y="46.745" fill="#0A0909"/><path fill="#FC2222" d="M382.161,63.248c0,0,2.057-1.118,4.517-1.252c2.46-0.134,3.041,0.984,5.814,1.073
			c2.773,0.089,6.261-2.549,6.261-2.549s0.313,9.929-0.492,11.047c-0.805,1.118-14.088,1.252-15.251,0.313
			C381.848,70.941,382.161,63.248,382.161,63.248z"/><g><path fill="#FC2222" d="M361.923,208.884l-0.032-0.914c0.115-0.004,11.598-0.446,19.881-4.333
				c8.125-3.813,8.18-17.001,6.307-24.419c-1.906-7.549,1.813-102.692,1.973-106.738l0.914,0.035
				c-0.039,0.99-3.874,99.058-2,106.479c2.021,8.007,1.877,21.396-6.805,25.472C373.706,208.433,362.041,208.88,361.923,208.884z"/></g><path fill="#D7E1F2" d="M356.772,212.14l2.243-5.661c0,0,2.349,0.145,4.794,1.1c2.445,0.954,3.424,1.656,3.424,1.656l-2.201,5.171
			c0,0-4.621-0.537-6.44-1.401C356.772,212.14,356.772,212.14,356.772,212.14z"/><path fill="#0A0909" d="M285.979,162.085c0,0,0.587,0.522,2.348,0.522c1.761,0,2.517-2.087,2.517-2.087s2.004,1.239,2.972,1.044
			c0.968-0.196,1.62-1.044,1.62-1.044s0.374,1.5,2.665,1.044c2.291-0.457,1.418-4.109,1.418-4.109s0.677-6.983-9.497-4.959
			c-10.174,2.024-9.783,7.698-9.717,10.502c0.065,2.804,3.508,5.174,3.508,5.174s0.34,1.739,1.775,1.739
			c1.435,0,1.588-2.087,1.588-2.087s1.673-0.043,1.673-1.945C288.849,163.976,285.979,162.085,285.979,162.085z"/><g><rect width="20.543" height="36.477" x="412.37" y="165.391" fill="#464D7B"/><rect width="20.543" height="36.477" x="406.629" y="165.391" fill="#D7E1F2"/><rect width="15.783" height="14.478" x="408.849" y="167.759" fill="#6696F8"/><rect width="3.522" height="3.522" x="409.387" y="184.846" fill="#6696F8"/><rect width="3.522" height="3.522" x="414.62" y="184.846" fill="#6696F8"/><rect width="3.522" height="3.522" x="419.854" y="184.846" fill="#6696F8"/><rect width="3.522" height="3.522" x="409.387" y="189.639" fill="#6696F8"/><rect width="3.522" height="3.522" x="414.62" y="189.639" fill="#6696F8"/><rect width="3.522" height="3.522" x="419.854" y="189.639" fill="#6696F8"/><rect width="3.522" height="3.522" x="409.387" y="194.433" fill="#FC2222"/><rect width="3.522" height="3.522" x="414.62" y="194.433" fill="#6696F8"/><rect width="3.522" height="3.522" x="419.854" y="194.433" fill="#6696F8"/></g></g></svg>