<svg xmlns="http://www.w3.org/2000/svg" data-name="Layer 1" viewBox="0 0 366.62 321.75"><circle cx="192.41" cy="160.76" r="156.03" fill="#fcefd4" transform="rotate(-45 192.41 160.761)"/><path fill="#feb7df" d="M209.33,11.41A7.36,7.36,0,0,0,202,18.77V162.26a7.37,7.37,0,0,0,7.37,7.37H335.76a7.37,7.37,0,0,0,7.37-7.37V18.77a7.36,7.36,0,0,0-7.37-7.36"/><path d="M335.76,170.05H209.33a7.8,7.8,0,0,1-7.78-7.79V18.77A7.79,7.79,0,0,1,209.33,11a.42.42,0,0,1,.42.42.41.41,0,0,1-.42.41,7,7,0,0,0-7,7V162.26a7,7,0,0,0,7,7H335.76a7,7,0,0,0,6.95-7V18.77a7,7,0,0,0-6.95-6.95.41.41,0,0,1-.41-.41.41.41,0,0,1,.41-.42,7.79,7.79,0,0,1,7.78,7.78V162.26A7.8,7.8,0,0,1,335.76,170.05Z"/><path fill="#fff" d="M309.89,62.33A37.35,37.35,0,1,1,272.54,25,37.24,37.24,0,0,1,309.89,62.33Z"/><circle cx="272.54" cy="53.26" r="15.93"/><path d="M272.54,69.61a16.35,16.35,0,1,1,16.35-16.35A16.38,16.38,0,0,1,272.54,69.61Zm0-31.87a15.52,15.52,0,1,0,15.52,15.52A15.53,15.53,0,0,0,272.54,37.74Z"/><path d="M272.54,99.27a37,37,0,0,1-27.19-12C250,73.51,260.6,64.6,272.54,64.6s22.6,8.91,27.2,22.72A37,37,0,0,1,272.54,99.27Z"/><path d="M272.54,65a24.92,24.92,0,0,1,16.31,6.31,35.9,35.9,0,0,1,10.41,15.89,36.51,36.51,0,0,1-53.44,0,36,36,0,0,1,10.41-15.89A24.92,24.92,0,0,1,272.54,65m0-.83c-12.5,0-23.21,9.6-27.66,23.23a37.34,37.34,0,0,0,55.33,0C295.76,73.79,285,64.19,272.54,64.19Z"/><polygon fill="#f7be1b" points="176.59 320.01 166.32 313.27 159 308.47 166.32 303.67 176.59 296.93 190.42 309.94 176.59 320.01"/><path fill="#fff" d="M322.88,298.66h2.95a9.2,9.2,0,0,1,9.2,9.2v1.22a9.21,9.21,0,0,1-9.21,9.21h-2.95a9.2,9.2,0,0,1-9.2-9.2v-1.22A9.2,9.2,0,0,1,322.88,298.66Z"/><path fill="#342d48" d="M325.82,318.7h-2.94a9.64,9.64,0,0,1-9.63-9.62v-1.22a9.64,9.64,0,0,1,9.63-9.62h2.94a9.63,9.63,0,0,1,9.62,9.62v1.22A9.63,9.63,0,0,1,325.82,318.7Zm-2.94-19.63a8.8,8.8,0,0,0-8.79,8.79v1.22a8.8,8.8,0,0,0,8.79,8.79h2.94a8.8,8.8,0,0,0,8.79-8.79v-1.22a8.8,8.8,0,0,0-8.79-8.79Z"/><rect width="137.49" height="23.08" x="176.59" y="296.93" fill="#f64f65"/><polygon fill="#f64f65" points="166.32 313.27 159 308.47 166.32 303.67 166.32 313.27"/><path fill="#f7be1b" d="M322.21,298.77a3.15,3.15,0,0,0-3.16-3.16H304a3.15,3.15,0,0,0-3.16,3.16v19.4a3.15,3.15,0,0,0,3.16,3.16h15a3.15,3.15,0,0,0,3.16-3.16"/><path fill="#ba890f" d="M319.05,321.75H304a3.59,3.59,0,0,1-3.58-3.58v-19.4a3.59,3.59,0,0,1,3.58-3.58h15a3.59,3.59,0,0,1,3.58,3.58h-.83a2.75,2.75,0,0,0-2.75-2.75H304a2.75,2.75,0,0,0-2.75,2.75v19.4a2.75,2.75,0,0,0,2.75,2.75h15a2.75,2.75,0,0,0,2.75-2.75h.83A3.59,3.59,0,0,1,319.05,321.75Z"/><path fill="#f7be1b" d="M77.41,27.79V18.44a5.5,5.5,0,1,1,11,0v9.35a5.5,5.5,0,0,1-11,0Zm8.27-9.35a2.77,2.77,0,0,0-5.54,0v9.35a2.77,2.77,0,1,0,5.54,0Z"/><path fill="#ba890f" d="M82.91,33.7A5.92,5.92,0,0,1,77,27.79V18.44a5.92,5.92,0,1,1,11.83,0v9.35A5.92,5.92,0,0,1,82.91,33.7Zm0-20.34a5.08,5.08,0,0,0-5.08,5.08v9.35a5.08,5.08,0,1,0,10.16,0V18.44A5.08,5.08,0,0,0,82.91,13.36Zm0,17.61a3.19,3.19,0,0,1-3.19-3.18V18.44a3.19,3.19,0,1,1,6.38,0v9.35A3.19,3.19,0,0,1,82.91,31Zm0-14.89a2.36,2.36,0,0,0-2.35,2.36v9.35a2.36,2.36,0,0,0,4.71,0V18.44A2.36,2.36,0,0,0,82.91,16.08Z"/><path fill="#f7be1b" d="M77.41,51.8V42.45a5.5,5.5,0,0,1,11,0V51.8a5.5,5.5,0,0,1-11,0Zm8.27-9.35a2.77,2.77,0,0,0-5.54,0V51.8a2.77,2.77,0,0,0,5.54,0Z"/><path fill="#ba890f" d="M82.91,57.72A5.92,5.92,0,0,1,77,51.8V42.45a5.92,5.92,0,0,1,11.83,0V51.8A5.93,5.93,0,0,1,82.91,57.72Zm0-20.35a5.09,5.09,0,0,0-5.08,5.08V51.8A5.08,5.08,0,1,0,88,51.8V42.45A5.09,5.09,0,0,0,82.91,37.37Zm0,17.62a3.19,3.19,0,0,1-3.19-3.19V42.45a3.19,3.19,0,0,1,6.38,0V51.8A3.19,3.19,0,0,1,82.91,55Zm0-14.89a2.35,2.35,0,0,0-2.35,2.35V51.8a2.36,2.36,0,1,0,4.71,0V42.45A2.36,2.36,0,0,0,82.91,40.1Z"/><path fill="#f7be1b" d="M84.5,40.39V29.67a1.59,1.59,0,0,0-1.59-1.59h0a1.59,1.59,0,0,0-1.59,1.59V40.39A1.59,1.59,0,0,0,82.91,42h0A1.59,1.59,0,0,0,84.5,40.39Z"/><path fill="#ba890f" d="M82.91,42.4a2,2,0,0,1-2-2V29.67a2,2,0,1,1,4,0V40.39A2,2,0,0,1,82.91,42.4Zm0-13.9a1.17,1.17,0,0,0-1.17,1.17V40.39a1.18,1.18,0,1,0,2.35,0V29.67A1.17,1.17,0,0,0,82.91,28.5Z"/><path fill="#45a77b" d="M124,46.64c.71-8.84-.53-18.54,1.7-27.17,4.9-19,27.1-21.82,43.14-17C179.35,5.64,187.82,13.17,197.93,17c.56,3.44-6.34,8.52-8.7,10.28a43.47,43.47,0,0,1-25.51,8.79,45.61,45.61,0,0,1-21.82-5.68c-3.57-2-8.54-4.88-10.62-8.5C128,30.12,129.05,38,129.45,46.63Z"/><path fill="#2d7a55" d="M123.59,47.05l0-.45c.25-3.16.25-6.51.26-9.75,0-5.85,0-11.91,1.45-17.48a23.52,23.52,0,0,1,11.6-15.16C147-1.45,160.1-.6,169,2.09c5.73,1.72,10.93,4.79,15.95,7.75a87.44,87.44,0,0,0,13.12,6.76l.23.08,0,.24c.52,3.22-4.4,7.35-8.74,10.6l-.13.09a43.57,43.57,0,0,1-25.75,8.87,46.21,46.21,0,0,1-22-5.74c-3.2-1.81-7.94-4.5-10.32-7.94-2.46,6.73-2.09,13.29-1.7,20.22.07,1.18.14,2.38.19,3.59l0,.43ZM154.72.83a35.45,35.45,0,0,0-17.37,4.11,22.7,22.7,0,0,0-11.21,14.63c-1.41,5.48-1.41,11.48-1.42,17.28,0,3.1,0,6.31-.23,9.37H129c0-1.06-.11-2.11-.17-3.14-.41-7.29-.8-14.17,2-21.35l.32-.8.43.75c2.06,3.59,7.12,6.45,10.47,8.35a45.11,45.11,0,0,0,21.57,5.62h0A42.81,42.81,0,0,0,189,26.94l.12-.09c2.15-1.61,8.6-6.42,8.44-9.56a89.89,89.89,0,0,1-13-6.73c-5-2.94-10.14-6-15.77-7.68A49.54,49.54,0,0,0,154.72.83Z"/><path fill="#45a77b" d="M74.33,97.9c-.71-8.84.53-18.53-1.69-27.17-4.9-19-27.1-21.82-43.14-17C19,56.91,10.56,64.44.45,68.25c-.56,3.44,6.34,8.53,8.7,10.29a43.51,43.51,0,0,0,25.51,8.78,45.6,45.6,0,0,0,21.82-5.67c3.56-2,8.54-4.89,10.62-8.51,3.27,8.24,2.22,16.08,1.83,24.75Z"/><path fill="#2d7a55" d="M74.78,98.32H68.5v-.44c.06-1.21.13-2.4.19-3.59.4-6.92.77-13.48-1.7-20.21-2.37,3.44-7.11,6.12-10.32,7.94a45.94,45.94,0,0,1-22,5.73h0A43.6,43.6,0,0,1,8.9,78.87l-.12-.09C4.43,75.54-.49,71.4,0,68.19l0-.24.22-.09A85.59,85.59,0,0,0,13.42,61.1c5-3,10.22-6,16-7.75,8.9-2.68,22-3.54,32.05,2.13A23.51,23.51,0,0,1,73,70.63c1.44,5.58,1.44,11.63,1.45,17.49,0,3.23,0,6.58.26,9.75Zm-5.41-.84h4.51c-.22-3.06-.22-6.26-.22-9.36,0-5.81,0-11.8-1.43-17.28A22.74,22.74,0,0,0,61,56.2c-9.84-5.53-22.68-4.69-31.41-2.05-5.64,1.7-10.79,4.73-15.77,7.67a88.93,88.93,0,0,1-13,6.73c-.17,3.14,6.28,8,8.44,9.56l.12.1a42.76,42.76,0,0,0,25.26,8.7,44.9,44.9,0,0,0,21.61-5.63c3.35-1.89,8.4-4.76,10.47-8.35l.43-.74.31.8C70.34,80.16,70,87,69.54,94.33,69.48,95.37,69.42,96.42,69.37,97.48Z"/><path fill="#45a77b" d="M112.68,145.3c-.84-10.47.63-22-2-32.19C104.86,90.61,78.55,87.24,59.54,93c-12.42,3.75-22.45,12.67-34.43,17.2-.67,4.07,7.52,10.1,10.31,12.19a51.55,51.55,0,0,0,30.23,10.41A54.12,54.12,0,0,0,91.52,126c4.22-2.4,10.12-5.79,12.58-10.08,3.89,9.76,2.64,19.06,2.18,29.33Z"/><path fill="#2d7a55" d="M113.13,145.72h-7.29l0-.43c.07-1.44.15-2.86.23-4.26.46-8.27.91-16.09-2.07-24.13-2.78,4.12-8.47,7.34-12.3,9.51a54.36,54.36,0,0,1-26,6.78h0a51.57,51.57,0,0,1-30.48-10.49l-.14-.11c-3-2.25-11-8.23-10.33-12.48l0-.24.22-.08a103.61,103.61,0,0,0,15.57-8c5.95-3.51,12.1-7.14,18.89-9.19,10.53-3.17,26-4.18,37.93,2.52A27.79,27.79,0,0,1,111.07,113c1.7,6.6,1.71,13.77,1.72,20.71,0,3.84,0,7.81.31,11.56Zm-6.42-.84h5.52c-.27-3.66-.27-7.48-.28-11.18,0-6.88,0-14-1.69-20.5A27,27,0,0,0,97,95.81C85.27,89.24,70,90.24,59.66,93.37,53,95.39,46.86,99,41,102.47a103.64,103.64,0,0,1-15.46,8c-.26,3.77,7.46,9.53,10,11.45l.14.11a50.77,50.77,0,0,0,30,10.33h0a53.52,53.52,0,0,0,25.61-6.67c4-2.26,10-5.66,12.43-9.93l.43-.75.32.8c3.38,8.49,2.92,16.64,2.43,25.27C106.85,142.33,106.77,143.59,106.71,144.88Z"/><path fill="#fff" d="M310.8,57.69H211.24V49.54A11.26,11.26,0,0,0,200,38.28H106.22A11.26,11.26,0,0,0,95,49.54V273.75A11.25,11.25,0,0,0,106.22,285H310.8a11.25,11.25,0,0,0,11.26-11.25V68.94A11.25,11.25,0,0,0,310.8,57.69Z"/><path fill="#342d48" d="M310.8,285.42H106.22a11.68,11.68,0,0,1-11.67-11.67V49.54a11.68,11.68,0,0,1,11.67-11.67H200a11.68,11.68,0,0,1,11.67,11.67v7.73H310.8a11.68,11.68,0,0,1,11.67,11.67V273.75A11.68,11.68,0,0,1,310.8,285.42ZM106.22,38.7A10.85,10.85,0,0,0,95.39,49.54V273.75a10.85,10.85,0,0,0,10.83,10.84H310.8a10.85,10.85,0,0,0,10.84-10.84V68.94A10.85,10.85,0,0,0,310.8,58.1h-100V49.54A10.85,10.85,0,0,0,200,38.7Z"/><line x1="191.17" x2="201.96" y1="44.69" y2="55.48" fill="#342d48"/><rect width=".83" height="15.26" x="196.15" y="42.45" fill="#342d48" transform="rotate(-45 196.564 50.08)"/><line x1="201.96" x2="191.17" y1="44.69" y2="55.48" fill="#342d48"/><rect width="15.26" height=".83" x="188.94" y="49.66" fill="#342d48" transform="rotate(-45 196.564 50.08)"/><polygon fill="#342d48" points="47.16 305.13 42.66 307.49 43.52 302.48 39.88 298.94 44.91 298.2 47.16 293.65 49.41 298.2 54.44 298.94 50.8 302.48 51.66 307.49 47.16 305.13"/><path fill="#342d48" d="M52.21,308.26l-5.05-2.66-5,2.66,1-5.63-4.09-4,5.65-.83,2.53-5.11,2.53,5.11,5.64.83-4.08,4Zm-5.05-3.6,4,2.07-.76-4.39,3.2-3.11-4.42-.64-2-4-2,4-4.42.64,3.2,3.11-.76,4.39Z"/><polygon fill="#342d48" points="67.78 305.13 63.28 307.49 64.14 302.48 60.5 298.94 65.53 298.2 67.78 293.65 70.03 298.2 75.06 298.94 71.42 302.48 72.28 307.49 67.78 305.13"/><path fill="#342d48" d="M72.84,308.26l-5.06-2.66-5.05,2.66,1-5.63-4.09-4,5.65-.83,2.52-5.11,2.53,5.11,5.65.83-4.09,4Zm-11.44-9,3.19,3.11-.75,4.39,3.94-2.07,4,2.07L71,302.34l3.19-3.11-4.41-.64-2-4-2,4Z"/><polygon fill="#342d48" points="88.41 305.13 83.91 307.49 84.77 302.48 81.13 298.94 86.16 298.2 88.41 293.65 90.66 298.2 95.69 298.94 92.05 302.48 92.91 307.49 88.41 305.13"/><path fill="#342d48" d="M93.46,308.26l-5-2.66-5,2.66,1-5.63-4.09-4,5.65-.83,2.53-5.11,2.53,5.11,5.64.83-4.08,4Zm-5-3.6,4,2.07-.76-4.39,3.19-3.11-4.41-.64-2-4-2,4-4.42.64,3.2,3.11-.76,4.39Z"/><polygon fill="#fff" points="109.03 305.13 104.53 307.49 105.39 302.48 101.75 298.94 106.78 298.2 109.03 293.65 111.28 298.2 116.31 298.94 112.67 302.48 113.53 307.49 109.03 305.13"/><path fill="#342d48" d="M114.09,308.26,109,305.6l-5,2.66,1-5.63-4.09-4,5.65-.83,2.52-5.11,2.53,5.11,5.65.83-4.09,4Zm-5.06-3.6,4,2.07-.75-4.39,3.19-3.11-4.41-.64-2-4-2,4-4.41.64,3.19,3.11-.75,4.39Z"/><polygon fill="#fff" points="129.66 305.13 125.16 307.49 126.02 302.48 122.38 298.94 127.41 298.2 129.66 293.65 131.91 298.2 136.94 298.94 133.3 302.48 134.16 307.49 129.66 305.13"/><path fill="#342d48" d="M134.71,308.26l-5.05-2.66-5,2.66,1-5.63-4.09-4,5.65-.83,2.53-5.11,2.52,5.11,5.65.83-4.08,4Zm-11.44-9,3.2,3.11-.76,4.39,4-2.07,4,2.07-.76-4.39,3.19-3.11-4.41-.64-2-4-2,4Z"/><path fill="#f64f65" d="M168.2,121.05a27.76,27.76,0,1,1-27.76-27.76A27.67,27.67,0,0,1,168.2,121.05Z"/><circle cx="140.44" cy="114.31" r="11.84" fill="#c8315a"/><path fill="#c8315a" d="M161,139.7a27.77,27.77,0,0,1-41.13,0c3.31-10.13,11.28-17.27,20.57-17.27S157.69,129.57,161,139.7Z"/><polyline fill="#fff" points="188.91 103.69 188.91 93.29 297.35 93.29 297.35 103.69"/><polygon fill="#342d48" points="297.76 103.69 296.93 103.69 296.93 93.71 189.32 93.71 189.32 103.69 188.49 103.69 188.49 92.88 297.76 92.88 297.76 103.69"/><polyline fill="#fff" points="297.35 126.25 188.91 126.25 188.91 115.85 297.35 115.85"/><polygon fill="#342d48" points="297.35 126.67 188.49 126.67 188.49 115.44 297.35 115.44 297.35 116.27 189.32 116.27 189.32 125.83 297.35 125.83 297.35 126.67"/><polyline fill="#fff" points="297.35 138.41 297.35 148.81 188.91 148.81 188.91 138.41"/><polygon fill="#342d48" points="297.76 149.23 188.49 149.23 188.49 138.41 189.32 138.41 189.32 148.4 296.93 148.4 296.93 138.41 297.76 138.41 297.76 149.23"/><rect width="184.66" height=".83" x="112.68" y="180.51" fill="#342d48"/><rect width="184.66" height=".83" x="112.68" y="189.23" fill="#342d48"/><rect width="184.66" height=".83" x="112.68" y="197.95" fill="#342d48"/><rect width="184.66" height=".83" x="112.68" y="206.67" fill="#342d48"/><rect width="184.66" height=".83" x="112.68" y="215.4" fill="#342d48"/><rect width="184.66" height=".83" x="112.68" y="224.12" fill="#342d48"/><rect width="184.66" height=".83" x="112.68" y="232.84" fill="#342d48"/><path fill="#342d48" d="M195.62,95.92v2l1.91-.61.21.58-1.93.6,1.23,1.66-.5.37-1.23-1.69-1.24,1.69-.5-.37,1.23-1.66-1.93-.6.21-.58,1.91.61v-2Z"/><path fill="#342d48" d="M204.32,95.92v2l1.92-.61.2.58-1.92.6,1.22,1.66-.49.37L204,98.8l-1.24,1.69-.49-.37,1.22-1.66-1.93-.6.21-.58,1.92.61v-2Z"/><path fill="#342d48" d="M213,95.92v2l1.92-.61.21.58-1.93.6,1.22,1.66-.49.37-1.24-1.69-1.24,1.69-.49-.37,1.22-1.66-1.93-.6.21-.58,1.92.61v-2Z"/><path fill="#342d48" d="M221.73,95.92v2l1.91-.61.21.58-1.93.6,1.23,1.66-.5.37-1.24-1.69-1.23,1.69-.5-.37,1.23-1.66-1.93-.6.21-.58,1.91.61v-2Z"/><path fill="#342d48" d="M230.43,95.92v2l1.91-.61.21.58-1.93.6,1.23,1.66-.5.37-1.23-1.69-1.24,1.69-.5-.37,1.23-1.66-1.93-.6.21-.58,1.91.61v-2Z"/><path fill="#342d48" d="M239.13,95.92v2l1.92-.61.2.58-1.92.6,1.22,1.66-.49.37-1.24-1.69-1.24,1.69-.49-.37,1.22-1.66-1.93-.6.21-.58,1.92.61v-2Z"/><path fill="#342d48" d="M195.62,118.8v2l1.91-.61.21.59-1.93.6L197,123l-.5.38-1.23-1.69-1.24,1.69-.5-.38,1.23-1.65-1.93-.6.21-.59,1.91.61v-2Z"/><path fill="#342d48" d="M204.32,118.8v2l1.92-.61.2.59-1.92.6,1.22,1.65-.49.38L204,121.68l-1.24,1.69-.49-.38,1.22-1.65-1.93-.6.21-.59,1.92.61v-2Z"/><path fill="#342d48" d="M213,118.8v2l1.92-.61.21.59-1.93.6,1.22,1.65-.49.38-1.24-1.69-1.24,1.69L211,123l1.22-1.65-1.93-.6.21-.59,1.92.61v-2Z"/><path fill="#342d48" d="M221.73,118.8v2l1.91-.61.21.59-1.93.6,1.23,1.65-.5.38-1.24-1.69-1.23,1.69-.5-.38,1.23-1.65-1.93-.6.21-.59,1.91.61v-2Z"/><path fill="#342d48" d="M195.62,141.05v2l1.91-.61.21.58-1.93.6,1.23,1.66-.5.37-1.23-1.69-1.24,1.69-.5-.37,1.23-1.66-1.93-.6.21-.58L195,143v-2Z"/><path fill="#342d48" d="M204.32,141.05v2l1.92-.61.2.58-1.92.6,1.22,1.66-.49.37L204,143.93l-1.24,1.69-.49-.37,1.22-1.66-1.93-.6.21-.58,1.92.61v-2Z"/><path fill="#45a77b" d="M167,249.65a7.57,7.57,0,0,0-7.56,7.56V265a7.56,7.56,0,0,0,7.56,7.56H250A7.55,7.55,0,0,0,257.6,265v-7.82a7.56,7.56,0,0,0-7.56-7.56"/><path fill="#2d7a55" d="M250,273H167a8,8,0,0,1-8-8v-7.82a8,8,0,0,1,8-8v.83a7.14,7.14,0,0,0-7.14,7.14V265a7.14,7.14,0,0,0,7.14,7.14H250a7.15,7.15,0,0,0,7.15-7.14v-7.82a7.15,7.15,0,0,0-7.15-7.14v-.83a8,8,0,0,1,8,8V265A8,8,0,0,1,250,273Z"/><path fill="#fff" d="M181.07,261.17v4.41h-.74v-9.22H183c2,0,3.07.8,3.07,2.41a2.08,2.08,0,0,1-.7,1.65,2.89,2.89,0,0,1-1.75.69l2.73,4.47h-.9l-2.63-4.41Zm0-4.17v3.53h1.82a3.07,3.07,0,0,0,1.8-.45,1.51,1.51,0,0,0,.63-1.31c0-1.18-.82-1.77-2.45-1.77Z"/><path fill="#fff" d="M188.85,261.11v3.81h5.05v.66h-5.78v-9.22h5.62V257h-4.89v3.44h4.57v.65Z"/><path fill="#fff" d="M203.36,257.31l-.47.51a3.69,3.69,0,0,0-2.75-1,3.74,3.74,0,0,0-2.91,1.21,4.23,4.23,0,0,0-1.11,3,4.28,4.28,0,0,0,1.11,3,3.75,3.75,0,0,0,2.94,1.22,5.06,5.06,0,0,0,2.64-.62v-3.05H200.6v-.65h3V265a6.54,6.54,0,0,1-3.4.87,4.66,4.66,0,0,1-3.47-1.38,4.8,4.8,0,0,1-1.35-3.49,4.7,4.7,0,0,1,1.36-3.47,4.63,4.63,0,0,1,3.44-1.38A4.41,4.41,0,0,1,203.36,257.31Z"/><path fill="#fff" d="M206.77,256.36v9.22H206v-9.22Z"/><path fill="#fff" d="M214.43,257.21l-.53.48a2.48,2.48,0,0,0-2-.94,2.4,2.4,0,0,0-1.49.49,1.61,1.61,0,0,0-.65,1.37,1.55,1.55,0,0,0,.27.93,1.85,1.85,0,0,0,.69.58,7.52,7.52,0,0,0,.95.38c.34.11.68.24,1,.37a5.13,5.13,0,0,1,.94.46,2,2,0,0,1,.7.75,2.55,2.55,0,0,1-.61,3.07,3.28,3.28,0,0,1-2.07.68,3.32,3.32,0,0,1-2.79-1.33l.53-.46a2.87,2.87,0,0,0,2.26,1.14,2.38,2.38,0,0,0,1.53-.52,1.68,1.68,0,0,0,.66-1.4,1.59,1.59,0,0,0-.27-.93,1.68,1.68,0,0,0-.69-.6,6.67,6.67,0,0,0-.93-.4l-1-.37a4.85,4.85,0,0,1-.94-.47,1.83,1.83,0,0,1-.69-.74,2.24,2.24,0,0,1-.27-1.14,2.18,2.18,0,0,1,.87-1.85,3.34,3.34,0,0,1,2-.65A3,3,0,0,1,214.43,257.21Z"/><path fill="#fff" d="M219.2,257v8.56h-.74V257h-3.1v-.66h6.94V257Z"/><path fill="#fff" d="M224.49,261.11v3.81h5v.66h-5.78v-9.22h5.61V257h-4.88v3.44h4.57v.65Z"/><path fill="#fff" d="M232.2,261.17v4.41h-.74v-9.22h2.65c2,0,3.08.8,3.08,2.41a2.08,2.08,0,0,1-.71,1.65,2.86,2.86,0,0,1-1.74.69l2.72,4.47h-.9l-2.63-4.41Zm0-4.17v3.53H234a3.07,3.07,0,0,0,1.8-.45,1.5,1.5,0,0,0,.64-1.31c0-1.18-.82-1.77-2.45-1.77Z"/><path fill="#feb7df" d="M140.44,162.43a7.37,7.37,0,0,0-7.37-7.37H43.74a7.37,7.37,0,0,0-7.36,7.37V264.34a7.37,7.37,0,0,0,7.36,7.36h89.33a7.37,7.37,0,0,0,7.37-7.36"/><path d="M133.07,272.12H43.74A7.79,7.79,0,0,1,36,264.33V162.43a7.79,7.79,0,0,1,7.78-7.78h89.33a7.79,7.79,0,0,1,7.79,7.78.42.42,0,0,1-.84,0,7,7,0,0,0-7-7H43.74a7,7,0,0,0-6.94,7v101.9a7,7,0,0,0,6.94,6.95h89.33a7,7,0,0,0,7-6.95.42.42,0,0,1,.84,0A7.79,7.79,0,0,1,133.07,272.12Z"/><line x1="325.65" x2="336.44" y1="18.13" y2="28.92" fill="#342d48"/><rect width=".83" height="15.26" x="330.63" y="15.89" fill="#342d48" transform="rotate(-45 331.054 23.523)"/><line x1="336.44" x2="325.65" y1="18.13" y2="28.92" fill="#342d48"/><rect width="15.26" height=".83" x="323.42" y="23.11" fill="#342d48" transform="rotate(-45 331.042 23.518)"/><line x1="123.2" x2="133.99" y1="161.64" y2="172.43" fill="#342d48"/><rect width=".83" height="15.26" x="128.18" y="159.41" fill="#342d48" transform="rotate(-45 128.601 167.042)"/><line x1="133.99" x2="123.2" y1="161.64" y2="172.43" fill="#342d48"/><rect width="15.26" height=".83" x="120.96" y="166.62" fill="#342d48" transform="rotate(-45 128.589 167.037)"/><path fill="#fff" d="M110.06,213.38a21.65,21.65,0,1,1-21.65-21.65A21.55,21.55,0,0,1,110.06,213.38Z"/><circle cx="88.41" cy="208.12" r="9.24"/><path d="M88.41,217.77a9.65,9.65,0,1,1,9.65-9.65A9.66,9.66,0,0,1,88.41,217.77Zm0-18.47a8.82,8.82,0,1,0,8.82,8.82A8.83,8.83,0,0,0,88.41,199.3Z"/><path d="M88.41,234.61a21.28,21.28,0,0,1-15.57-6.79c2.66-7.87,8.75-12.95,15.57-12.95S101.31,220,104,227.82A21.28,21.28,0,0,1,88.41,234.61Z"/><path d="M88.41,215.29c6.57,0,12.45,4.86,15.09,12.43a20.81,20.81,0,0,1-30.18,0c2.64-7.57,8.52-12.43,15.09-12.43m0-.83c-7.25,0-13.46,5.56-16,13.46a21.64,21.64,0,0,0,32.07,0c-2.58-7.9-8.79-13.46-16-13.46Z"/><circle cx="323.24" cy="220.81" r="31.54" fill="#f7be1b" transform="rotate(-45 323.242 220.809)"/><path fill="#ba890f" d="M323.24,252.77a32,32,0,1,1,32-32A32,32,0,0,1,323.24,252.77Zm0-63.08a31.12,31.12,0,1,0,31.12,31.12A31.15,31.15,0,0,0,323.24,189.69Z"/><circle cx="323.24" cy="218.65" r="31.54" fill="#f7be1b"/><path fill="#ba890f" d="M323.24,250.6a32,32,0,1,1,32-31.95A32,32,0,0,1,323.24,250.6Zm0-63.07a31.12,31.12,0,1,0,31.12,31.12A31.15,31.15,0,0,0,323.24,187.53Z"/><path fill="#f7be1b" d="M349.61,218.65c0,.44,0,.88,0,1.32v0a26.36,26.36,0,0,1-52.66,0v0c0-.44,0-.88,0-1.32a26.37,26.37,0,1,1,52.74,0Z"/><path fill="#ba890f" d="M323.24,245.43A26.75,26.75,0,0,1,296.49,220V220q0-.67,0-1.32a26.78,26.78,0,1,1,53.56,0c0,.43,0,.87,0,1.34A26.75,26.75,0,0,1,323.24,245.43Zm0-52.73a26,26,0,0,0-25.95,26c0,.42,0,.84,0,1.3V220a26,26,0,0,0,51.84,0c0-.5,0-.92,0-1.34A26,26,0,0,0,323.24,192.7Z"/><path fill="#f7be1b" d="M349.57,220v0a26.36,26.36,0,0,1-52.66,0v0a26.36,26.36,0,0,1,52.66,0Z"/><path fill="#ba890f" d="M323.24,245.43A26.75,26.75,0,0,1,296.49,220V220a26.78,26.78,0,0,1,53.5,0V220A26.75,26.75,0,0,1,323.24,245.43Zm0-50.05A25.93,25.93,0,0,0,297.32,220a26,26,0,0,0,51.84,0A25.93,25.93,0,0,0,323.24,195.38Z"/><path fill="#f7be1b" d="M322.31,233.55V219.4a28.55,28.55,0,0,1-3.35-1.26,16.33,16.33,0,0,1-2.78-1.68,6.66,6.66,0,0,1-2.09-2.58,8.43,8.43,0,0,1-.72-3.57,7.91,7.91,0,0,1,2.54-6.14,10,10,0,0,1,6.4-2.57v-3.35h1.86v3.35a10.86,10.86,0,0,1,8.53,3.73L331,206.91a8.56,8.56,0,0,0-6.85-3.21v13.65c1.15.4,2.11.76,2.89,1.09a21.06,21.06,0,0,1,2.52,1.3,9,9,0,0,1,2.16,1.77,8.34,8.34,0,0,1,1.35,2.33,8.44,8.44,0,0,1,.54,3.1A8,8,0,0,1,331,233.2a10.2,10.2,0,0,1-6.78,2.5v3.35h-1.86V235.7a11.92,11.92,0,0,1-9.46-4.75l1.87-1.45a10.1,10.1,0,0,0,3.58,3A9.75,9.75,0,0,0,322.31,233.55Zm0-16.86v-13a6.83,6.83,0,0,0-4.54,1.89,6,6,0,0,0-1.84,4.54Q315.93,214.87,322.31,216.69Zm1.86,3.17v13.69a7.75,7.75,0,0,0,4.8-1.84,6.14,6.14,0,0,0,2-5Q331,222.06,324.17,219.86Z"/><path fill="#ba890f" d="M324.59,239.47h-2.7V236.1a12.27,12.27,0,0,1-9.36-4.9l-.26-.33,2.52-2,.26.33a9.66,9.66,0,0,0,3.44,2.88,9.42,9.42,0,0,0,3.4,1V219.7a27.8,27.8,0,0,1-3.11-1.18,16.49,16.49,0,0,1-2.84-1.73,7.08,7.08,0,0,1-2.23-2.74,8.92,8.92,0,0,1-.76-3.74,8.39,8.39,0,0,1,2.67-6.45,10.39,10.39,0,0,1,6.27-2.64v-3.39h2.7v3.37a11.15,11.15,0,0,1,8.42,3.86l.26.3L331,207.52l-.28-.34a8.06,8.06,0,0,0-6.11-3.06v12.93c1.05.38,1.92.71,2.63,1a19.87,19.87,0,0,1,2.57,1.33,9.4,9.4,0,0,1,2.27,1.85,8.57,8.57,0,0,1,1.42,2.45,9,9,0,0,1,.56,3.25,8.42,8.42,0,0,1-2.81,6.57,10.52,10.52,0,0,1-6.64,2.59Zm-1.86-.84h1v-3.34h.4a9.75,9.75,0,0,0,6.51-2.39,7.61,7.61,0,0,0,2.54-5.95,8.08,8.08,0,0,0-.51-2.95,7.68,7.68,0,0,0-1.28-2.2,8.36,8.36,0,0,0-2.06-1.69,20.25,20.25,0,0,0-2.46-1.28c-.76-.32-1.7-.67-2.87-1.08l-.27-.1V203.28h.41a9,9,0,0,1,6.88,3l1.07-1a10.57,10.57,0,0,0-7.95-3.28h-.41v-3.34h-1V202l-.4,0a9.68,9.68,0,0,0-6.14,2.45,7.56,7.56,0,0,0-2.41,5.84,7.93,7.93,0,0,0,.69,3.39,6.36,6.36,0,0,0,2,2.43,15.77,15.77,0,0,0,2.7,1.63,26.08,26.08,0,0,0,3.3,1.24l.3.09V234h-.43a10,10,0,0,1-4.18-1.09,10.47,10.47,0,0,1-3.47-2.8l-1.2.93a11.47,11.47,0,0,0,8.87,4.27h.41Zm1-4.64v-14.7l.54.17c4.7,1.52,7.09,4,7.09,7.29a6.56,6.56,0,0,1-2.15,5.28,8.26,8.26,0,0,1-5.05,1.94Zm.83-13.55v12.67a7.4,7.4,0,0,0,4.11-1.71,5.71,5.71,0,0,0,1.86-4.65C330.56,223.92,328.6,221.85,324.59,220.44Zm-1.86-3.19-.53-.16c-4.44-1.26-6.69-3.6-6.69-7a6.43,6.43,0,0,1,2-4.85,7.34,7.34,0,0,1,4.81-2l.44,0Zm-.84-13.1a6.35,6.35,0,0,0-3.83,1.74,5.5,5.5,0,0,0-1.71,4.24c0,2.85,1.81,4.82,5.54,6Z"/><polygon fill="#f7be1b" points="366.2 191.87 360.64 191.87 360.64 186.31 358.29 186.31 358.29 191.87 352.73 191.87 352.73 194.22 358.29 194.22 358.29 199.78 360.64 199.78 360.64 194.22 366.2 194.22 366.2 191.87"/><path fill="#ba890f" d="M361.06,200.19h-3.18v-5.56h-5.56v-3.18h5.56v-5.56h3.18v5.56h5.56v3.18h-5.56Zm-2.35-.83h1.52V193.8h5.55v-1.52h-5.55v-5.55h-1.52v5.55h-5.56v1.52h5.56Z"/></svg>